<svg width="358" height="83" viewBox="0 0 358 83" fill="none" xmlns="http://www.w3.org/2000/svg">
<path d="M16.3799 23.31C14.7599 23.31 13.1699 23.16 11.6099 22.86C10.1099 22.56 8.75991 22.08 7.55991 21.42C6.35991 20.7 5.36991 19.8 4.58991 18.72C3.80991 17.58 3.32991 16.17 3.14991 14.49C2.78991 10.83 3.62991 7.95002 5.66991 5.85001C7.70991 3.69002 11.3699 2.28002 16.6499 1.62002C19.4699 1.26002 22.5899 0.990016 26.0099 0.810015C29.4899 0.570014 33.1499 0.450014 36.9899 0.450014C40.8299 0.390015 44.8199 0.420016 48.9599 0.540018C53.1599 0.660017 57.3899 0.840016 61.6499 1.08002C64.2899 1.20002 66.5999 1.68001 68.5799 2.52001C70.5599 3.36001 72.2099 4.44001 73.5299 5.76002C74.9099 7.08002 75.9299 8.61002 76.5899 10.35C77.3099 12.03 77.6699 13.77 77.6699 15.57C77.6699 20.07 76.6499 23.79 74.6099 26.73C72.5699 29.67 69.9299 31.44 66.6899 32.04C64.8899 32.34 63.0899 32.43 61.2899 32.31C59.5499 32.13 57.8999 31.74 56.3399 31.14C54.8399 30.54 53.4899 29.73 52.2899 28.71C51.0899 27.63 50.1599 26.31 49.4999 24.75C49.0199 23.67 48.6899 22.53 48.5099 21.33C48.3899 20.13 48.3899 18.96 48.5099 17.82C48.6899 16.62 49.0199 15.48 49.4999 14.4C50.0399 13.32 50.7599 12.36 51.6599 11.52C52.3799 10.86 52.5299 10.29 52.1099 9.81002C51.7499 9.33002 51.2399 9.33002 50.5799 9.81002C48.1799 11.55 45.6599 13.23 43.0199 14.85C40.4399 16.47 37.7399 17.91 34.9199 19.17C32.0999 20.43 29.1299 21.45 26.0099 22.23C22.9499 22.95 19.7399 23.31 16.3799 23.31ZM18.3599 34.29C18.3599 31.77 18.5999 29.82 19.0799 28.44C19.5599 27.06 20.3699 26.04 21.5099 25.38C22.7099 24.66 24.2699 24.24 26.1899 24.12C28.1699 23.94 30.6599 23.85 33.6599 23.85C36.5999 23.85 39.0299 23.94 40.9499 24.12C42.9299 24.24 44.4899 24.66 45.6299 25.38C46.8299 26.04 47.6699 27.06 48.1499 28.44C48.6299 29.82 48.8699 31.77 48.8699 34.29V34.92C52.9499 34.86 56.9399 34.77 60.8399 34.65C64.7999 34.47 68.6099 34.26 72.2699 34.02C74.9099 33.9 76.9499 34.44 78.3899 35.64C79.8899 36.78 80.6399 38.22 80.6399 39.96C80.6399 42.06 79.8899 43.65 78.3899 44.73C76.9499 45.81 74.8799 46.41 72.1799 46.53C67.1999 46.89 61.9799 47.16 56.5199 47.34C51.0599 47.52 45.5399 47.61 39.9599 47.61C34.4399 47.61 28.9799 47.52 23.5799 47.34C18.1799 47.16 13.0799 46.89 8.27991 46.53C5.69991 46.35 3.65991 45.75 2.15991 44.73C0.719912 43.65 -8.78423e-05 42.06 -8.78423e-05 39.96C-8.78423e-05 38.22 0.719912 36.78 2.15991 35.64C3.65991 34.44 5.69991 33.9 8.27991 34.02C9.89991 34.14 11.5499 34.23 13.2299 34.29C14.9099 34.35 16.6199 34.44 18.3599 34.56V34.29ZM3.50991 65.88C3.50991 62.94 4.34991 60.45 6.02991 58.41C7.70991 56.31 10.1399 54.63 13.3199 53.37C16.4999 52.05 20.3399 51.12 24.8399 50.58C29.3999 49.98 34.5599 49.68 40.3199 49.68C46.0199 49.68 51.1499 49.95 55.7099 50.49C60.2699 51.03 64.1099 51.93 67.2299 53.19C70.4099 54.45 72.8399 56.13 74.5199 58.23C76.1999 60.27 77.0399 62.82 77.0399 65.88C77.0399 68.94 76.1999 71.52 74.5199 73.62C72.8399 75.72 70.4099 77.4 67.2299 78.66C64.1099 79.92 60.2699 80.82 55.7099 81.36C51.1499 81.9 46.0199 82.17 40.3199 82.17C34.5599 82.17 29.3999 81.87 24.8399 81.27C20.3399 80.73 16.4999 79.8 13.3199 78.48C10.1399 77.16 7.70991 75.48 6.02991 73.44C4.34991 71.4 3.50991 68.88 3.50991 65.88ZM36.1799 70.83C35.9399 71.07 35.8499 71.34 35.9099 71.64C35.9699 72 36.0899 72.3 36.2699 72.54C36.5099 72.84 36.8099 73.02 37.1699 73.08C37.5899 73.14 37.9799 73.02 38.3399 72.72C40.0799 71.34 41.4899 69.6 42.5699 67.5C43.6499 65.4 44.5199 63.27 45.1799 61.11C45.3599 60.63 45.3599 60.24 45.1799 59.94C44.9999 59.58 44.7299 59.34 44.3699 59.22C44.0699 59.1 43.7399 59.1 43.3799 59.22C43.0799 59.34 42.8699 59.58 42.7499 59.94C42.0899 61.98 41.2499 63.87 40.2299 65.61C39.2099 67.35 37.8599 69.09 36.1799 70.83ZM88.2175 23.13C88.2175 19.17 89.0875 15.75 90.8275 12.87C92.6275 9.93002 95.1475 7.53002 98.3875 5.67002C101.687 3.75002 105.647 2.34002 110.267 1.44002C114.887 0.540018 120.077 0.0900186 125.837 0.0900186C131.537 0.0900186 136.697 0.540018 141.317 1.44002C145.937 2.28002 149.867 3.63002 153.107 5.49002C156.407 7.35002 158.927 9.75002 160.667 12.69C162.467 15.57 163.367 19.05 163.367 23.13C163.367 27.21 162.467 30.72 160.667 33.66C158.927 36.54 156.407 38.91 153.107 40.77C149.867 42.63 145.937 44.01 141.317 44.91C136.697 45.75 131.537 46.17 125.837 46.17C120.077 46.17 114.887 45.72 110.267 44.82C105.647 43.92 101.687 42.54 98.3875 40.68C95.1475 38.76 92.6275 36.36 90.8275 33.48C89.0875 30.54 88.2175 27.09 88.2175 23.13ZM121.157 26.19C120.857 26.37 120.707 26.67 120.707 27.09C120.707 27.45 120.827 27.81 121.067 28.17C121.307 28.47 121.637 28.68 122.057 28.8C122.477 28.92 122.927 28.83 123.407 28.53C125.447 27.39 127.277 25.95 128.897 24.21C130.577 22.41 131.807 20.49 132.587 18.45C132.767 17.97 132.767 17.52 132.587 17.1C132.407 16.68 132.167 16.38 131.867 16.2C131.567 15.96 131.237 15.84 130.877 15.84C130.517 15.84 130.247 15.99 130.067 16.29C128.867 18.39 127.547 20.28 126.107 21.96C124.667 23.58 123.017 24.99 121.157 26.19ZM93.7975 65.25C91.2175 65.01 89.1775 64.05 87.6775 62.37C86.2375 60.69 85.5175 58.5 85.5175 55.8C85.5175 54.66 85.6975 53.55 86.0575 52.47C86.4775 51.39 87.0475 50.43 87.7675 49.59C88.4875 48.75 89.3575 48.12 90.3775 47.7C91.3975 47.22 92.5375 47.04 93.7975 47.16C98.5975 47.64 103.697 47.97 109.097 48.15C114.497 48.33 119.957 48.42 125.477 48.42C131.057 48.42 136.577 48.33 142.037 48.15C147.557 47.91 152.807 47.58 157.787 47.16C159.107 47.04 160.277 47.22 161.297 47.7C162.317 48.18 163.187 48.84 163.907 49.68C164.627 50.46 165.167 51.39 165.527 52.47C165.947 53.55 166.157 54.66 166.157 55.8C166.157 58.5 165.407 60.69 163.907 62.37C162.467 64.05 160.397 65.01 157.697 65.25C157.577 65.25 157.457 65.28 157.337 65.34C157.217 65.34 157.097 65.34 156.977 65.34C157.097 65.94 157.157 66.57 157.157 67.23C157.157 67.83 157.157 68.49 157.157 69.21C157.157 71.73 156.917 73.77 156.437 75.33C156.017 76.89 155.267 78.12 154.187 79.02C153.107 79.92 151.667 80.52 149.867 80.82C148.067 81.12 145.787 81.27 143.027 81.27C140.327 81.27 138.047 81.12 136.187 80.82C134.387 80.52 132.947 79.92 131.867 79.02C130.787 78.12 130.007 76.89 129.527 75.33C129.107 73.77 128.897 71.73 128.897 69.21C128.897 68.73 128.897 68.28 128.897 67.86C128.897 67.38 128.927 66.9 128.987 66.42H122.687C122.747 66.84 122.777 67.29 122.777 67.77C122.777 68.25 122.777 68.73 122.777 69.21C122.777 71.73 122.537 73.77 122.057 75.33C121.637 76.89 120.887 78.12 119.807 79.02C118.727 79.92 117.287 80.52 115.487 80.82C113.687 81.12 111.437 81.27 108.737 81.27C105.917 81.27 103.577 81.12 101.717 80.82C99.9175 80.52 98.4475 79.92 97.3075 79.02C96.2275 78.12 95.4475 76.89 94.9675 75.33C94.5475 73.77 94.3375 71.73 94.3375 69.21C94.3375 68.49 94.3375 67.83 94.3375 67.23C94.3375 66.57 94.3975 65.94 94.5175 65.34C94.3975 65.34 94.2775 65.34 94.1575 65.34C94.0375 65.28 93.9175 65.25 93.7975 65.25ZM236.327 42.12C234.707 42.54 232.667 42.87 230.207 43.11C227.747 43.35 225.197 43.53 222.557 43.65C219.917 43.71 217.367 43.71 214.907 43.65C212.447 43.59 210.467 43.47 208.967 43.29C205.967 42.99 203.627 42.03 201.947 40.41C200.267 38.79 199.427 36.9 199.427 34.74C199.367 32.16 200.357 30.27 202.397 29.07C204.497 27.87 207.467 27.42 211.307 27.72C216.647 28.14 222.257 28.14 228.137 27.72C234.077 27.24 239.867 25.98 245.507 23.94C245.927 23.76 246.197 23.52 246.317 23.22C246.497 22.92 246.527 22.62 246.407 22.32C246.347 22.02 246.167 21.78 245.867 21.6C245.627 21.42 245.297 21.39 244.877 21.51C241.277 22.65 237.887 23.49 234.707 24.03C231.527 24.57 228.467 24.93 225.527 25.11C222.647 25.23 219.827 25.17 217.067 24.93C214.367 24.69 211.637 24.39 208.877 24.03C207.077 23.79 205.337 23.43 203.657 22.95C201.977 22.41 200.477 21.72 199.157 20.88C197.897 20.04 196.877 19.05 196.097 17.91C195.317 16.71 194.927 15.33 194.927 13.77C194.927 10.59 195.797 8.10002 197.537 6.30002C199.277 4.44002 201.617 3.06002 204.557 2.16002C207.557 1.20002 211.007 0.600016 214.907 0.360015C218.867 0.120015 223.037 1.44243e-05 227.417 1.44243e-05C231.257 1.44243e-05 235.007 0.0900151 238.667 0.270016C242.327 0.390015 245.717 0.780015 248.837 1.44002C251.957 2.10002 254.687 3.09002 257.027 4.41002C259.427 5.73002 261.257 7.59002 262.517 9.99001C263.657 12.21 264.497 14.7 265.037 17.46C265.577 20.16 265.877 22.98 265.937 25.92C266.057 28.86 265.967 31.86 265.667 34.92C265.367 37.92 264.917 40.83 264.317 43.65C263.957 45.57 263.297 47.19 262.337 48.51C261.437 49.77 260.327 50.82 259.007 51.66C257.747 52.44 256.307 53.04 254.687 53.46C253.067 53.82 251.387 54.03 249.647 54.09C245.927 54.21 242.867 53.22 240.467 51.12C238.127 48.96 236.747 45.96 236.327 42.12ZM209.327 56.43C209.267 55.95 209.207 55.47 209.147 54.99C209.147 54.51 209.147 54.03 209.147 53.55C209.147 50.67 210.137 48.6 212.117 47.34C214.157 46.08 217.457 45.45 222.017 45.45C224.537 45.45 226.607 45.66 228.227 46.08C229.907 46.5 231.227 47.1 232.187 47.88C233.207 48.66 233.927 49.62 234.347 50.76C234.767 51.9 234.977 53.19 234.977 54.63C234.977 55.11 234.977 55.56 234.977 55.98C234.977 56.34 234.947 56.76 234.887 57.24C239.267 57.18 243.647 57.06 248.027 56.88C252.467 56.64 256.967 56.28 261.527 55.8C263.267 55.62 264.797 55.8 266.117 56.34C267.497 56.82 268.637 57.57 269.537 58.59C270.497 59.55 271.217 60.72 271.697 62.1C272.177 63.48 272.417 64.95 272.417 66.51C272.417 70.41 271.457 73.35 269.537 75.33C267.677 77.37 264.977 78.57 261.437 78.93C251.417 79.95 241.607 80.46 232.007 80.46C222.467 80.46 212.687 79.95 202.667 78.93C199.247 78.57 196.577 77.37 194.657 75.33C192.737 73.35 191.777 70.41 191.777 66.51C191.777 64.95 192.017 63.48 192.497 62.1C192.977 60.72 193.697 59.55 194.657 58.59C195.617 57.57 196.757 56.82 198.077 56.34C199.397 55.8 200.927 55.62 202.667 55.8C203.807 55.92 204.917 56.04 205.997 56.16C207.137 56.22 208.247 56.31 209.327 56.43ZM304.385 30.78C303.785 31.14 303.575 31.62 303.755 32.22C303.995 32.76 304.535 32.91 305.375 32.67C308.435 31.65 311.645 30.81 315.005 30.15C318.425 29.43 321.695 28.86 324.815 28.44C327.995 27.96 330.905 27.63 333.545 27.45C336.185 27.27 338.315 27.18 339.935 27.18C341.975 27.18 343.835 27.39 345.515 27.81C347.195 28.17 348.635 28.77 349.835 29.61C351.095 30.45 352.115 31.59 352.895 33.03C353.675 34.41 354.185 36.12 354.425 38.16C354.605 39.72 354.575 41.19 354.335 42.57C354.095 43.95 353.585 45.21 352.805 46.35C352.085 47.43 351.065 48.36 349.745 49.14C348.425 49.92 346.745 50.46 344.705 50.76C341.165 51.3 337.325 51.72 333.185 52.02C329.105 52.26 325.055 52.41 321.035 52.47C317.015 52.47 313.175 52.41 309.515 52.29C305.915 52.11 302.825 51.87 300.245 51.57C297.365 51.21 294.845 50.76 292.685 50.22C290.525 49.62 288.665 48.87 287.105 47.97C285.605 47.07 284.375 45.99 283.415 44.73C282.455 43.41 281.765 41.88 281.345 40.14C280.865 38.22 280.505 36.12 280.265 33.84C280.025 31.56 279.905 29.25 279.905 26.91C279.905 24.57 280.025 22.29 280.265 20.07C280.505 17.85 280.865 15.78 281.345 13.86C282.245 10.26 283.835 7.56002 286.115 5.76002C288.455 3.96002 291.515 2.88002 295.295 2.52001C296.435 2.46001 298.175 2.40002 300.515 2.34002C302.915 2.22002 305.615 2.16002 308.615 2.16002C311.615 2.10002 314.765 2.07001 318.065 2.07001C321.365 2.07001 324.515 2.07001 327.515 2.07001C330.515 2.07001 333.185 2.10002 335.525 2.16002C337.925 2.22002 339.695 2.28002 340.835 2.34002C344.615 2.64002 347.495 3.48002 349.475 4.86002C351.515 6.18002 352.535 8.19002 352.535 10.89C352.535 13.77 351.575 15.99 349.655 17.55C347.735 19.05 344.795 19.8 340.835 19.8H309.875C310.295 21.06 310.535 22.59 310.595 24.39C310.715 26.19 310.685 27.63 310.505 28.71C309.245 29.19 308.135 29.55 307.175 29.79C306.275 29.97 305.345 30.3 304.385 30.78ZM288.185 78.84C284.765 78.48 282.095 77.22 280.175 75.06C278.255 72.96 277.295 69.81 277.295 65.61C277.295 63.93 277.535 62.37 278.015 60.93C278.495 59.43 279.215 58.14 280.175 57.06C281.135 55.98 282.275 55.2 283.595 54.72C284.915 54.18 286.445 54 288.185 54.18C298.205 55.2 307.985 55.71 317.525 55.71C327.125 55.71 336.965 55.2 347.045 54.18C348.785 54 350.315 54.18 351.635 54.72C353.015 55.2 354.155 55.98 355.055 57.06C356.015 58.14 356.735 59.43 357.215 60.93C357.695 62.37 357.935 63.93 357.935 65.61C357.935 69.81 356.975 72.96 355.055 75.06C353.195 77.22 350.495 78.48 346.955 78.84C336.875 79.86 327.065 80.37 317.525 80.37C308.045 80.37 298.265 79.86 288.185 78.84Z" fill="#3C4FD0"/>
</svg>
