<svg width="444" height="83" viewBox="0 0 444 83" fill="none" xmlns="http://www.w3.org/2000/svg">
<path d="M13.6799 35.82C13.3799 33.48 13.1999 31.08 13.1399 28.62C13.0799 26.1 13.1399 23.58 13.3199 21.06C12.8999 21 12.5099 20.97 12.1499 20.97C11.7899 20.91 11.3999 20.85 10.9799 20.79C8.57991 20.55 6.59991 19.77 5.03991 18.45C3.53991 17.07 2.78991 14.97 2.78991 12.15C2.78991 9.38999 3.53991 7.31999 5.03991 5.93998C6.59991 4.55998 8.57991 3.74998 10.9799 3.50998C15.4199 3.02998 20.1899 2.66998 25.2899 2.42999C30.3899 2.18999 35.4299 2.06999 40.4099 2.06999C45.3299 2.06999 50.3399 2.18999 55.4399 2.42999C60.5999 2.66998 65.3999 3.02998 69.8399 3.50998C72.2399 3.74998 74.1899 4.55998 75.6899 5.93998C77.2499 7.31999 78.0299 9.38999 78.0299 12.15C78.0299 14.97 77.2499 17.07 75.6899 18.45C74.1899 19.77 72.2399 20.55 69.8399 20.79L66.8699 21.06C67.0499 23.58 67.1099 26.1 67.0499 28.62C66.9899 31.08 66.8099 33.45 66.5099 35.73C67.1099 35.79 67.6799 35.85 68.2199 35.91C68.7599 35.97 69.2999 36.03 69.8399 36.09C72.2399 36.33 74.1899 37.14 75.6899 38.52C77.2499 39.9 78.0299 42 78.0299 44.82C78.0299 47.58 77.2499 49.65 75.6899 51.03C74.1899 52.35 72.2399 53.13 69.8399 53.37C65.3999 53.85 60.5999 54.21 55.4399 54.45C50.3399 54.69 45.3299 54.81 40.4099 54.81C35.4299 54.81 30.3899 54.69 25.2899 54.45C20.1899 54.21 15.4199 53.85 10.9799 53.37C8.57991 53.13 6.59991 52.35 5.03991 51.03C3.53991 49.65 2.78991 47.58 2.78991 44.82C2.78991 42 3.53991 39.9 5.03991 38.52C6.59991 37.14 8.57991 36.33 10.9799 36.09L13.6799 35.82ZM40.4099 34.65H44.2799C44.2199 32.55 44.2199 30.48 44.2799 28.44C44.3999 26.4 44.6099 24.33 44.9099 22.23H40.4099H35.3699C35.6699 24.33 35.8799 26.4 35.9999 28.44C36.1199 30.48 36.1199 32.55 35.9999 34.65H40.4099ZM10.8899 80.46C7.46991 80.1 4.79991 78.9 2.87991 76.86C0.959912 74.88 -8.78423e-05 71.94 -8.78423e-05 68.04C-8.78423e-05 66.48 0.239912 65.01 0.719912 63.63C1.19991 62.25 1.91991 61.08 2.87991 60.12C3.83991 59.1 4.97991 58.35 6.29991 57.87C7.61991 57.33 9.14991 57.15 10.8899 57.33C20.9099 58.35 30.6899 58.86 40.2299 58.86C49.8299 58.86 59.6699 58.35 69.7499 57.33C71.4899 57.15 73.0199 57.33 74.3399 57.87C75.7199 58.35 76.8599 59.1 77.7599 60.12C78.7199 61.08 79.4399 62.25 79.9199 63.63C80.3999 65.01 80.6399 66.48 80.6399 68.04C80.6399 71.94 79.6799 74.88 77.7599 76.86C75.8999 78.9 73.1999 80.1 69.6599 80.46C59.6399 81.48 49.8299 81.99 40.2299 81.99C30.6899 81.99 20.9099 81.48 10.8899 80.46ZM157.697 82.8C154.997 82.8 152.867 81.78 151.307 79.74C149.747 77.7 149.117 74.64 149.417 70.56C150.317 60.84 150.767 51.18 150.767 41.58C150.767 31.98 150.347 22.53 149.507 13.23C149.147 8.72998 149.747 5.42998 151.307 3.32999C152.867 1.16999 154.997 0.0899851 157.697 0.0899851C160.097 0.0899851 162.077 0.989984 163.637 2.78998C165.257 4.58998 166.217 7.34998 166.517 11.07C167.237 20.85 167.597 30.99 167.597 41.49C167.597 51.99 167.237 62.16 166.517 72C166.217 75.6 165.257 78.3 163.637 80.1C162.077 81.9 160.097 82.8 157.697 82.8ZM130.877 25.65C130.757 23.67 130.637 21.72 130.517 19.8C130.457 17.82 130.337 15.87 130.157 13.95C129.737 9.50998 130.307 6.26998 131.867 4.22999C133.487 2.12998 135.647 1.07998 138.347 1.07998C140.747 1.07998 142.727 1.94998 144.287 3.68999C145.847 5.42999 146.777 8.09999 147.077 11.7C147.737 21.36 148.067 31.35 148.067 41.67C148.067 51.99 147.737 61.98 147.077 71.64C146.777 75.24 145.847 77.91 144.287 79.65C142.727 81.39 140.747 82.26 138.347 82.26C135.647 82.26 133.487 81.24 131.867 79.2C130.247 77.16 129.617 74.16 129.977 70.2C130.277 66.6 130.517 63 130.697 59.4C130.877 55.8 131.027 52.2 131.147 48.6H128.537C126.797 48.6 125.327 47.91 124.127 46.53C122.987 45.09 122.297 42.84 122.057 39.78C121.397 40.86 120.557 41.76 119.537 42.48C118.577 43.14 117.437 43.5 116.117 43.56C112.097 43.68 108.587 44.19 105.587 45.09C102.647 45.93 100.097 46.92 97.9375 48.06C97.5775 48.24 97.3675 48.51 97.3075 48.87C97.2475 49.17 97.2775 49.5 97.3975 49.86C97.5175 50.16 97.6975 50.4 97.9375 50.58C98.1775 50.76 98.4775 50.76 98.8375 50.58C101.297 49.56 103.787 48.63 106.307 47.79C108.887 46.89 111.647 46.35 114.587 46.17C119.267 45.99 122.747 47.22 125.027 49.86C127.307 52.5 128.627 56.19 128.987 60.93C129.287 64.89 128.837 68.07 127.637 70.47C126.497 72.87 124.847 74.73 122.687 76.05C120.587 77.37 118.097 78.24 115.217 78.66C112.397 79.08 109.457 79.29 106.397 79.29C99.0775 79.29 93.7375 78.06 90.3775 75.6C87.0775 73.14 85.0975 69.66 84.4375 65.16C83.8975 61.38 83.5975 57.63 83.5375 53.91C83.4775 50.13 83.7775 46.62 84.4375 43.38C84.7975 41.64 85.2175 40.05 85.6975 38.61C86.1775 37.17 86.8075 35.94 87.5875 34.92C88.4275 33.84 89.4775 33 90.7375 32.4C91.9975 31.8 93.5575 31.47 95.4175 31.41C97.2175 31.35 98.9875 31.23 100.727 31.05C102.467 30.81 104.297 30.54 106.217 30.24C106.517 30.18 106.727 30 106.847 29.7C107.027 29.4 107.117 29.07 107.117 28.71C107.117 28.35 107.027 28.05 106.847 27.81C106.727 27.51 106.517 27.39 106.217 27.45C104.477 27.69 102.827 27.93 101.267 28.17C99.7675 28.41 98.1475 28.56 96.4075 28.62C91.8475 28.74 88.6975 27.84 86.9575 25.92C85.2775 24 84.4375 21.21 84.4375 17.55C84.4375 10.29 88.6375 5.75999 97.0375 3.95998C99.1975 3.53999 101.297 3.32999 103.337 3.32999C105.377 3.26998 107.387 3.32998 109.367 3.50998C111.047 3.62999 112.637 3.92999 114.137 4.40998C115.637 4.88998 116.987 5.60998 118.187 6.56998C119.447 7.46998 120.497 8.63999 121.337 10.08C122.237 11.52 122.867 13.26 123.227 15.3C123.947 19.5 124.277 23.67 124.217 27.81C125.297 26.31 126.737 25.56 128.537 25.56L130.877 25.65ZM224.855 40.41C225.575 35.43 225.935 30.42 225.935 25.38C225.935 20.28 225.605 15.39 224.945 10.71C224.705 8.84999 224.795 7.25999 225.215 5.93998C225.695 4.61998 226.415 3.53998 227.375 2.69998C228.395 1.79998 229.625 1.13998 231.065 0.719982C232.565 0.299984 234.215 0.0899851 236.015 0.0899851C239.195 0.0899851 241.805 0.809985 243.845 2.24998C245.885 3.62998 247.115 5.84998 247.535 8.90998C248.375 14.01 248.795 19.44 248.795 25.2C248.795 30.96 248.375 36.39 247.535 41.49C247.115 44.55 245.885 46.77 243.845 48.15C241.805 49.53 239.195 50.22 236.015 50.22C232.355 50.22 229.475 49.44 227.375 47.88C225.275 46.26 224.435 43.77 224.855 40.41ZM172.115 25.02C172.115 21.48 172.505 18.21 173.285 15.21C174.065 12.15 175.415 9.53998 177.335 7.37998C179.255 5.15998 181.835 3.44998 185.075 2.24998C188.315 0.989986 192.395 0.359987 197.315 0.359987C202.235 0.359987 206.315 0.989986 209.555 2.24998C212.795 3.44998 215.375 5.15998 217.295 7.37998C219.215 9.53998 220.565 12.15 221.345 15.21C222.185 18.21 222.605 21.48 222.605 25.02C222.605 28.5 222.155 31.71 221.255 34.65C220.355 37.59 218.915 40.14 216.935 42.3C214.955 44.4 212.345 46.05 209.105 47.25C205.925 48.45 201.995 49.05 197.315 49.05C192.635 49.05 188.675 48.45 185.435 47.25C182.255 46.05 179.675 44.4 177.695 42.3C175.715 40.14 174.275 37.59 173.375 34.65C172.535 31.71 172.115 28.5 172.115 25.02ZM190.565 22.5C191.885 24.24 193.595 25.74 195.695 27C197.795 28.26 199.985 29.16 202.265 29.7C202.805 29.82 203.255 29.76 203.615 29.52C203.975 29.22 204.215 28.89 204.335 28.53C204.515 28.17 204.545 27.81 204.425 27.45C204.365 27.09 204.155 26.85 203.795 26.73C201.635 26.07 199.625 25.17 197.765 24.03C195.905 22.83 194.135 21.42 192.455 19.8C192.155 19.56 191.825 19.5 191.465 19.62C191.165 19.68 190.865 19.86 190.565 20.16C190.325 20.46 190.175 20.82 190.115 21.24C190.055 21.66 190.205 22.08 190.565 22.5ZM174.635 75.78C174.335 74.64 174.095 73.29 173.915 71.73C173.795 70.17 173.735 68.58 173.735 66.96C173.735 65.28 173.795 63.69 173.915 62.19C174.035 60.69 174.215 59.4 174.455 58.32C174.875 56.4 175.685 55.05 176.885 54.27C178.085 53.49 179.855 52.92 182.195 52.56C186.575 51.96 191.225 51.51 196.145 51.21C201.125 50.91 206.135 50.76 211.175 50.76C216.215 50.76 221.195 50.91 226.115 51.21C231.095 51.51 235.775 51.96 240.155 52.56C242.555 52.92 244.325 53.49 245.465 54.27C246.665 55.05 247.475 56.4 247.895 58.32C248.135 59.4 248.315 60.69 248.435 62.19C248.555 63.69 248.585 65.28 248.525 66.96C248.525 68.58 248.435 70.17 248.255 71.73C248.135 73.29 247.925 74.64 247.625 75.78C247.145 77.7 246.365 79.08 245.285 79.92C244.265 80.76 242.555 81.3 240.155 81.54C235.715 82.02 231.035 82.35 226.115 82.53C221.195 82.77 216.215 82.89 211.175 82.89C206.135 82.89 201.155 82.77 196.235 82.53C191.315 82.35 186.635 82.02 182.195 81.54C179.855 81.24 178.145 80.67 177.065 79.83C175.985 79.05 175.175 77.7 174.635 75.78ZM203.615 66.6C203.075 67.38 203.465 68.13 204.785 68.85C206.825 69.99 208.955 70.56 211.175 70.56C213.455 70.5 215.645 69.93 217.745 68.85C218.585 68.31 218.885 67.65 218.645 66.87C218.525 66.45 218.255 66.15 217.835 65.97C217.475 65.73 217.085 65.73 216.665 65.97C215.045 66.87 213.185 67.32 211.085 67.32C209.045 67.26 207.215 66.78 205.595 65.88C205.355 65.7 205.025 65.67 204.605 65.79C204.185 65.91 203.855 66.18 203.615 66.6ZM328.595 35.91C328.415 38.79 328.085 41.13 327.605 42.93C327.185 44.73 326.555 46.14 325.715 47.16C324.935 48.12 323.945 48.78 322.745 49.14C321.605 49.44 320.225 49.59 318.605 49.59C316.565 49.59 314.855 49.44 313.475 49.14C312.095 48.84 310.955 48.21 310.055 47.25C309.215 46.23 308.585 44.85 308.165 43.11C307.805 41.31 307.625 38.91 307.625 35.91C307.625 32.43 307.325 29.52 306.725 27.18C306.125 24.78 304.925 22.62 303.125 20.7C302.765 20.22 302.345 19.95 301.865 19.89C301.445 19.77 301.085 19.8 300.785 19.98C300.485 20.16 300.305 20.43 300.245 20.79C300.245 21.15 300.455 21.51 300.875 21.87C302.255 23.31 303.275 25.17 303.935 27.45C304.595 29.73 304.925 32.82 304.925 36.72C304.925 39.42 304.685 41.61 304.205 43.29C303.785 44.91 303.065 46.2 302.045 47.16C301.025 48.06 299.675 48.66 297.995 48.96C296.315 49.26 294.245 49.41 291.785 49.41C287.525 49.41 284.165 48.33 281.705 46.17C279.245 44.01 277.925 40.38 277.745 35.28C277.565 30.84 277.955 27.36 278.915 24.84C279.935 22.32 281.735 20.31 284.315 18.81C286.535 17.49 288.305 16.11 289.625 14.67C290.945 13.17 291.605 11.07 291.605 8.36999C291.605 5.30999 292.475 3.17998 294.215 1.97998C296.015 0.719984 298.985 0.0899851 303.125 0.0899851C306.905 0.0899851 309.725 0.719984 311.585 1.97998C313.445 3.17998 314.375 5.24998 314.375 8.18998C314.375 10.35 315.065 12.15 316.445 13.59C317.885 14.97 319.595 16.35 321.575 17.73C322.115 16.35 322.835 15.42 323.735 14.94C324.695 14.4 325.835 14.13 327.155 14.13H331.835C331.775 13.47 331.715 12.87 331.655 12.33C331.595 11.79 331.505 11.25 331.385 10.71C331.145 8.84999 331.235 7.25999 331.655 5.93998C332.135 4.61998 332.855 3.53998 333.815 2.69998C334.835 1.79998 336.065 1.13998 337.505 0.719982C339.005 0.299984 340.655 0.0899851 342.455 0.0899851C345.635 0.0899851 348.245 0.809985 350.285 2.24998C352.325 3.62998 353.555 5.84998 353.975 8.90998C354.395 11.43 354.695 14.4 354.875 17.82C355.055 21.18 355.145 24.66 355.145 28.26C355.145 31.8 355.055 35.25 354.875 38.61C354.695 41.97 354.395 44.91 353.975 47.43C353.555 50.43 352.325 52.65 350.285 54.09C348.245 55.53 345.635 56.25 342.455 56.25C338.795 56.25 335.915 55.44 333.815 53.82C331.715 52.2 330.875 49.68 331.295 46.26C331.535 44.76 331.715 43.14 331.835 41.4C331.955 39.66 332.075 37.83 332.195 35.91H328.595ZM281.165 67.05C281.165 62.55 282.185 58.98 284.225 56.34C286.265 53.7 288.965 52.14 292.325 51.66C294.125 51.36 295.895 51.3 297.635 51.48C299.435 51.6 301.115 51.96 302.675 52.56C304.235 53.16 305.615 54 306.815 55.08C308.015 56.1 308.915 57.33 309.515 58.77C309.875 59.73 310.115 60.84 310.235 62.1C310.415 63.36 310.415 64.62 310.235 65.88C310.115 67.14 309.815 68.34 309.335 69.48C308.855 70.56 308.195 71.4 307.355 72C307.055 72.18 306.875 72.42 306.815 72.72C306.755 73.02 306.785 73.29 306.905 73.53C307.025 73.77 307.205 73.92 307.445 73.98C307.745 74.04 308.045 73.92 308.345 73.62C310.745 71.88 313.235 70.11 315.815 68.31C318.395 66.51 321.095 64.89 323.915 63.45C326.795 62.01 329.765 60.84 332.825 59.94C335.945 58.98 339.185 58.5 342.545 58.5C344.225 58.5 345.815 58.68 347.315 59.04C348.815 59.34 350.165 59.88 351.365 60.66C352.565 61.38 353.555 62.34 354.335 63.54C355.115 64.68 355.625 66.09 355.865 67.77C356.225 71.43 355.355 74.37 353.255 76.59C351.215 78.87 347.555 80.34 342.275 81C339.455 81.36 336.305 81.63 332.825 81.81C329.405 82.05 325.775 82.17 321.935 82.17C318.095 82.23 314.075 82.2 309.875 82.08C305.735 82.02 301.535 81.87 297.275 81.63C294.635 81.45 292.295 80.94 290.255 80.1C288.275 79.26 286.595 78.18 285.215 76.86C283.895 75.54 282.875 74.04 282.155 72.36C281.495 70.68 281.165 68.91 281.165 67.05ZM422.032 35.46C421.972 35.94 421.942 36.42 421.942 36.9C421.942 37.32 421.912 37.77 421.852 38.25C421.612 41.85 420.682 44.52 419.062 46.26C417.442 48 415.342 48.87 412.762 48.87C410.782 48.87 409.072 48.36 407.632 47.34C406.192 46.26 405.202 44.67 404.662 42.57C403.642 44.85 401.662 46.47 398.722 47.43C395.782 48.33 391.642 48.78 386.302 48.78C382.582 48.78 379.312 48.6 376.492 48.24C373.732 47.82 371.362 47.13 369.382 46.17C367.402 45.21 365.812 43.98 364.612 42.48C363.412 40.92 362.572 38.97 362.092 36.63C361.792 34.95 361.552 33.06 361.372 30.96C361.252 28.8 361.192 26.61 361.192 24.39C361.192 22.17 361.252 20.04 361.372 18C361.552 15.96 361.792 14.22 362.092 12.78C362.512 10.68 362.992 8.93999 363.532 7.55999C364.132 6.11999 364.822 4.97999 365.602 4.13999C366.442 3.23998 367.402 2.54998 368.482 2.06999C369.622 1.58999 370.942 1.19999 372.442 0.899985C373.762 0.599986 375.322 0.389985 377.122 0.269983C378.922 0.0899851 380.752 -1.37091e-05 382.612 -1.37091e-05C384.472 -1.37091e-05 386.272 0.0599855 388.012 0.179984C389.752 0.239983 391.282 0.389983 392.602 0.629984C393.922 0.869984 395.122 1.10998 396.202 1.34999C397.282 1.58999 398.182 1.94999 398.902 2.42999C399.682 2.84999 400.252 3.44998 400.612 4.22999C401.032 5.00999 401.242 6.02999 401.242 7.28998C401.242 9.98998 400.522 11.85 399.082 12.87C397.642 13.83 395.482 14.31 392.602 14.31H379.102C378.382 14.31 377.842 14.49 377.482 14.85C377.122 15.21 376.942 15.6 376.942 16.02C377.002 16.38 377.242 16.71 377.662 17.01C378.142 17.31 378.802 17.4 379.642 17.28C381.382 16.98 383.212 16.74 385.132 16.56C387.112 16.32 388.882 16.2 390.442 16.2C392.422 16.2 394.072 16.26 395.392 16.38C396.712 16.5 397.762 16.74 398.542 17.1C399.382 17.4 399.952 17.82 400.252 18.36C400.612 18.9 400.822 19.56 400.882 20.34C400.942 21.36 400.822 22.17 400.522 22.77C400.222 23.37 399.652 23.85 398.812 24.21C397.972 24.57 396.772 24.84 395.212 25.02C393.712 25.14 391.762 25.23 389.362 25.29C384.442 25.47 379.642 26.76 374.962 29.16C374.602 29.34 374.392 29.61 374.332 29.97C374.272 30.27 374.302 30.57 374.422 30.87C374.542 31.17 374.722 31.41 374.962 31.59C375.262 31.71 375.562 31.68 375.862 31.5C378.742 29.94 381.742 28.83 384.862 28.17C388.042 27.51 391.462 27.42 395.122 27.9C397.162 28.2 399.022 28.74 400.702 29.52C402.442 30.24 403.732 31.38 404.572 32.94C404.812 29.46 404.902 26.28 404.842 23.4C404.842 20.52 404.692 17.37 404.392 13.95C404.032 9.50998 404.632 6.26998 406.192 4.22999C407.812 2.12998 410.002 1.07998 412.762 1.07998C415.342 1.07998 417.442 1.94998 419.062 3.68999C420.682 5.42999 421.612 8.09999 421.852 11.7C421.912 12.36 421.942 13.02 421.942 13.68C421.942 14.28 421.972 14.91 422.032 15.57L425.542 15.84C425.482 15.36 425.452 14.94 425.452 14.58C425.452 14.16 425.422 13.71 425.362 13.23C424.942 8.78998 425.542 5.48998 427.162 3.32999C428.782 1.16999 431.002 0.0899851 433.822 0.0899851C436.342 0.0899851 438.412 0.989984 440.032 2.78998C441.712 4.58998 442.672 7.34998 442.912 11.07C443.152 15.75 443.272 20.34 443.272 24.84C443.332 29.28 443.212 33.84 442.912 38.52C442.612 42.18 441.652 44.91 440.032 46.71C438.412 48.45 436.342 49.32 433.822 49.32C431.002 49.32 428.782 48.33 427.162 46.35C425.542 44.31 424.912 41.22 425.272 37.08C425.332 36.78 425.362 36.48 425.362 36.18C425.422 35.82 425.452 35.49 425.452 35.19L422.032 35.46ZM381.622 71.37C376.942 71.31 373.252 70.65 370.552 69.39C367.852 68.13 366.412 66.09 366.232 63.27C366.112 61.83 366.412 60.54 367.132 59.4C367.912 58.26 369.022 57.24 370.462 56.34C371.962 55.44 373.762 54.69 375.862 54.09C377.962 53.43 380.332 52.92 382.972 52.56C386.212 52.08 389.662 51.66 393.322 51.3C397.042 50.88 400.762 50.58 404.482 50.4C408.262 50.22 411.952 50.19 415.552 50.31C419.152 50.43 422.452 50.79 425.452 51.39C429.772 52.23 433.162 53.43 435.622 54.99C438.082 56.55 439.822 58.17 440.842 59.85C442.222 62.43 442.762 65.1 442.462 67.86C442.162 70.62 441.112 73.26 439.312 75.78C437.812 78 435.562 79.56 432.562 80.46C429.622 81.42 425.812 81.96 421.132 82.08C416.212 82.2 412.312 81.63 409.432 80.37C406.552 79.11 404.842 77.22 404.302 74.7C403.702 71.94 403.882 69.63 404.842 67.77C405.862 65.91 407.392 64.02 409.432 62.1C409.792 61.74 409.672 61.47 409.072 61.29C408.472 61.11 407.962 61.2 407.542 61.56C404.182 64.74 400.282 67.2 395.842 68.94C391.462 70.68 386.722 71.49 381.622 71.37Z" fill="#3C4FD0"/>
</svg>
