<svg width="442" height="85" viewBox="0 0 442 85" fill="none" xmlns="http://www.w3.org/2000/svg">
<path d="M13.6802 37.53C13.3802 35.19 13.2002 32.79 13.1402 30.33C13.0802 27.81 13.1402 25.29 13.3202 22.77C12.9002 22.71 12.5102 22.68 12.1502 22.68C11.7902 22.62 11.4002 22.56 10.9802 22.5C8.58016 22.26 6.60016 21.48 5.04016 20.16C3.54016 18.78 2.79016 16.68 2.79016 13.86C2.79016 11.1 3.54016 9.03001 5.04016 7.65001C6.60016 6.27001 8.58016 5.46001 10.9802 5.22001C15.4202 4.74001 20.1902 4.38001 25.2902 4.14001C30.3902 3.90001 35.4302 3.78001 40.4102 3.78001C45.3302 3.78001 50.3402 3.90001 55.4402 4.14001C60.6002 4.38001 65.4002 4.74001 69.8402 5.22001C72.2402 5.46001 74.1902 6.27001 75.6902 7.65001C77.2502 9.03001 78.0302 11.1 78.0302 13.86C78.0302 16.68 77.2502 18.78 75.6902 20.16C74.1902 21.48 72.2402 22.26 69.8402 22.5L66.8702 22.77C67.0502 25.29 67.1102 27.81 67.0502 30.33C66.9902 32.79 66.8102 35.16 66.5102 37.44C67.1102 37.5 67.6802 37.56 68.2202 37.62C68.7602 37.68 69.3002 37.74 69.8402 37.8C72.2402 38.04 74.1902 38.85 75.6902 40.23C77.2502 41.61 78.0302 43.71 78.0302 46.53C78.0302 49.29 77.2502 51.36 75.6902 52.74C74.1902 54.06 72.2402 54.84 69.8402 55.08C65.4002 55.56 60.6002 55.92 55.4402 56.16C50.3402 56.4 45.3302 56.52 40.4102 56.52C35.4302 56.52 30.3902 56.4 25.2902 56.16C20.1902 55.92 15.4202 55.56 10.9802 55.08C8.58016 54.84 6.60016 54.06 5.04016 52.74C3.54016 51.36 2.79016 49.29 2.79016 46.53C2.79016 43.71 3.54016 41.61 5.04016 40.23C6.60016 38.85 8.58016 38.04 10.9802 37.8L13.6802 37.53ZM40.4102 36.36H44.2802C44.2202 34.26 44.2202 32.19 44.2802 30.15C44.4002 28.11 44.6102 26.04 44.9102 23.94H40.4102H35.3702C35.6702 26.04 35.8802 28.11 36.0002 30.15C36.1202 32.19 36.1202 34.26 36.0002 36.36H40.4102ZM10.8902 82.17C7.47016 81.81 4.80016 80.61 2.88016 78.57C0.960156 76.59 0.000156298 73.65 0.000156298 69.75C0.000156298 68.19 0.240156 66.72 0.720156 65.34C1.20016 63.96 1.92016 62.79 2.88016 61.83C3.84016 60.81 4.98016 60.06 6.30016 59.58C7.62016 59.04 9.15016 58.86 10.8902 59.04C20.9102 60.06 30.6902 60.57 40.2302 60.57C49.8302 60.57 59.6702 60.06 69.7502 59.04C71.4902 58.86 73.0202 59.04 74.3402 59.58C75.7202 60.06 76.8602 60.81 77.7602 61.83C78.7202 62.79 79.4402 63.96 79.9202 65.34C80.4002 66.72 80.6402 68.19 80.6402 69.75C80.6402 73.65 79.6802 76.59 77.7602 78.57C75.9002 80.61 73.2002 81.81 69.6602 82.17C59.6402 83.19 49.8302 83.7 40.2302 83.7C30.6902 83.7 20.9102 83.19 10.8902 82.17ZM157.698 84.51C154.998 84.51 152.868 83.49 151.308 81.45C149.748 79.41 149.118 76.35 149.418 72.27C150.318 62.55 150.768 52.89 150.768 43.29C150.768 33.69 150.348 24.24 149.508 14.94C149.148 10.44 149.748 7.14001 151.308 5.04001C152.868 2.88001 154.998 1.80001 157.698 1.80001C160.098 1.80001 162.078 2.70001 163.638 4.5C165.258 6.30001 166.218 9.06001 166.518 12.78C167.238 22.56 167.598 32.7 167.598 43.2C167.598 53.7 167.238 63.87 166.518 73.71C166.218 77.31 165.258 80.01 163.638 81.81C162.078 83.61 160.098 84.51 157.698 84.51ZM130.878 27.36C130.758 25.38 130.638 23.43 130.518 21.51C130.458 19.53 130.338 17.58 130.158 15.66C129.738 11.22 130.308 7.98001 131.868 5.94001C133.488 3.84001 135.648 2.79001 138.348 2.79001C140.748 2.79001 142.728 3.66001 144.288 5.40001C145.848 7.14001 146.778 9.81001 147.078 13.41C147.738 23.07 148.068 33.06 148.068 43.38C148.068 53.7 147.738 63.69 147.078 73.35C146.778 76.95 145.848 79.62 144.288 81.36C142.728 83.1 140.748 83.97 138.348 83.97C135.648 83.97 133.488 82.95 131.868 80.91C130.248 78.87 129.618 75.87 129.978 71.91C130.278 68.31 130.518 64.71 130.698 61.11C130.878 57.51 131.028 53.91 131.148 50.31H128.538C126.798 50.31 125.328 49.62 124.128 48.24C122.988 46.8 122.298 44.55 122.058 41.49C121.398 42.57 120.558 43.47 119.538 44.19C118.578 44.85 117.438 45.21 116.118 45.27C112.098 45.39 108.588 45.9 105.588 46.8C102.648 47.64 100.098 48.63 97.9377 49.77C97.5777 49.95 97.3677 50.22 97.3077 50.58C97.2477 50.88 97.2777 51.21 97.3977 51.57C97.5177 51.87 97.6977 52.11 97.9377 52.29C98.1777 52.47 98.4777 52.47 98.8377 52.29C101.298 51.27 103.788 50.34 106.308 49.5C108.888 48.6 111.648 48.06 114.588 47.88C119.268 47.7 122.748 48.93 125.028 51.57C127.308 54.21 128.628 57.9 128.988 62.64C129.288 66.6 128.838 69.78 127.638 72.18C126.498 74.58 124.848 76.44 122.688 77.76C120.588 79.08 118.098 79.95 115.218 80.37C112.398 80.79 109.458 81 106.398 81C99.0777 81 93.7377 79.77 90.3777 77.31C87.0777 74.85 85.0977 71.37 84.4377 66.87C83.8977 63.09 83.5977 59.34 83.5377 55.62C83.4777 51.84 83.7777 48.33 84.4377 45.09C84.7977 43.35 85.2177 41.76 85.6977 40.32C86.1777 38.88 86.8077 37.65 87.5877 36.63C88.4277 35.55 89.4777 34.71 90.7377 34.11C91.9977 33.51 93.5577 33.18 95.4177 33.12C97.2177 33.06 98.9877 32.94 100.728 32.76C102.468 32.52 104.298 32.25 106.218 31.95C106.518 31.89 106.728 31.71 106.848 31.41C107.028 31.11 107.118 30.78 107.118 30.42C107.118 30.06 107.028 29.76 106.848 29.52C106.728 29.22 106.518 29.1 106.218 29.16C104.478 29.4 102.828 29.64 101.268 29.88C99.7677 30.12 98.1477 30.27 96.4077 30.33C91.8477 30.45 88.6977 29.55 86.9577 27.63C85.2777 25.71 84.4377 22.92 84.4377 19.26C84.4377 12 88.6377 7.47001 97.0377 5.67001C99.1977 5.25001 101.298 5.04001 103.338 5.04001C105.378 4.98001 107.388 5.04 109.368 5.22001C111.048 5.34001 112.638 5.64001 114.138 6.12001C115.638 6.60001 116.988 7.32001 118.188 8.28C119.448 9.18001 120.498 10.35 121.338 11.79C122.238 13.23 122.868 14.97 123.228 17.01C123.948 21.21 124.278 25.38 124.218 29.52C125.298 28.02 126.738 27.27 128.538 27.27L130.878 27.36ZM224.855 42.12C225.575 37.14 225.935 32.13 225.935 27.09C225.935 21.99 225.605 17.1 224.945 12.42C224.705 10.56 224.795 8.97001 225.215 7.65001C225.695 6.33001 226.415 5.25001 227.375 4.41001C228.395 3.51001 229.625 2.85001 231.065 2.43C232.565 2.01001 234.215 1.80001 236.015 1.80001C239.195 1.80001 241.805 2.52001 243.845 3.96001C245.885 5.34001 247.115 7.56001 247.535 10.62C248.375 15.72 248.795 21.15 248.795 26.91C248.795 32.67 248.375 38.1 247.535 43.2C247.115 46.26 245.885 48.48 243.845 49.86C241.805 51.24 239.195 51.93 236.015 51.93C232.355 51.93 229.475 51.15 227.375 49.59C225.275 47.97 224.435 45.48 224.855 42.12ZM172.115 26.73C172.115 23.19 172.505 19.92 173.285 16.92C174.065 13.86 175.415 11.25 177.335 9.09C179.255 6.87 181.835 5.16 185.075 3.96001C188.315 2.70001 192.395 2.07001 197.315 2.07001C202.235 2.07001 206.315 2.70001 209.555 3.96001C212.795 5.16 215.375 6.87 217.295 9.09C219.215 11.25 220.565 13.86 221.345 16.92C222.185 19.92 222.605 23.19 222.605 26.73C222.605 30.21 222.155 33.42 221.255 36.36C220.355 39.3 218.915 41.85 216.935 44.01C214.955 46.11 212.345 47.76 209.105 48.96C205.925 50.16 201.995 50.76 197.315 50.76C192.635 50.76 188.675 50.16 185.435 48.96C182.255 47.76 179.675 46.11 177.695 44.01C175.715 41.85 174.275 39.3 173.375 36.36C172.535 33.42 172.115 30.21 172.115 26.73ZM190.565 24.21C191.885 25.95 193.595 27.45 195.695 28.71C197.795 29.97 199.985 30.87 202.265 31.41C202.805 31.53 203.255 31.47 203.615 31.23C203.975 30.93 204.215 30.6 204.335 30.24C204.515 29.88 204.545 29.52 204.425 29.16C204.365 28.8 204.155 28.56 203.795 28.44C201.635 27.78 199.625 26.88 197.765 25.74C195.905 24.54 194.135 23.13 192.455 21.51C192.155 21.27 191.825 21.21 191.465 21.33C191.165 21.39 190.865 21.57 190.565 21.87C190.325 22.17 190.175 22.53 190.115 22.95C190.055 23.37 190.205 23.79 190.565 24.21ZM174.635 77.49C174.335 76.35 174.095 75 173.915 73.44C173.795 71.88 173.735 70.29 173.735 68.67C173.735 66.99 173.795 65.4 173.915 63.9C174.035 62.4 174.215 61.11 174.455 60.03C174.875 58.11 175.685 56.76 176.885 55.98C178.085 55.2 179.855 54.63 182.195 54.27C186.575 53.67 191.225 53.22 196.145 52.92C201.125 52.62 206.135 52.47 211.175 52.47C216.215 52.47 221.195 52.62 226.115 52.92C231.095 53.22 235.775 53.67 240.155 54.27C242.555 54.63 244.325 55.2 245.465 55.98C246.665 56.76 247.475 58.11 247.895 60.03C248.135 61.11 248.315 62.4 248.435 63.9C248.555 65.4 248.585 66.99 248.525 68.67C248.525 70.29 248.435 71.88 248.255 73.44C248.135 75 247.925 76.35 247.625 77.49C247.145 79.41 246.365 80.79 245.285 81.63C244.265 82.47 242.555 83.01 240.155 83.25C235.715 83.73 231.035 84.06 226.115 84.24C221.195 84.48 216.215 84.6 211.175 84.6C206.135 84.6 201.155 84.48 196.235 84.24C191.315 84.06 186.635 83.73 182.195 83.25C179.855 82.95 178.145 82.38 177.065 81.54C175.985 80.76 175.175 79.41 174.635 77.49ZM203.615 68.31C203.075 69.09 203.465 69.84 204.785 70.56C206.825 71.7 208.955 72.27 211.175 72.27C213.455 72.21 215.645 71.64 217.745 70.56C218.585 70.02 218.885 69.36 218.645 68.58C218.525 68.16 218.255 67.86 217.835 67.68C217.475 67.44 217.085 67.44 216.665 67.68C215.045 68.58 213.185 69.03 211.085 69.03C209.045 68.97 207.215 68.49 205.595 67.59C205.355 67.41 205.025 67.38 204.605 67.5C204.185 67.62 203.855 67.89 203.615 68.31ZM291.605 39.15C288.845 38.73 286.505 38.16 284.585 37.44C282.725 36.72 281.225 35.88 280.085 34.92C278.945 33.9 278.105 32.79 277.565 31.59C277.085 30.39 276.845 29.1 276.845 27.72C276.845 26.16 277.145 24.69 277.745 23.31C278.345 21.93 279.425 20.73 280.985 19.71C279.845 19.05 279.005 18.21 278.465 17.19C277.925 16.11 277.655 14.94 277.655 13.68C277.655 11.94 278.135 10.41 279.095 9.09C280.115 7.71 281.435 6.87 283.055 6.57C284.555 6.39001 286.175 6.57001 287.915 7.11001C289.655 7.65001 291.215 8.34001 292.595 9.18001C290.675 7.86001 289.895 6.45001 290.255 4.95C290.555 3.57 291.605 2.4 293.405 1.44001C295.265 0.480008 298.085 8.82149e-06 301.865 8.82149e-06C305.525 8.82149e-06 308.255 0.480008 310.055 1.44001C311.855 2.4 312.935 3.57 313.295 4.95C313.535 6.45001 312.755 7.86001 310.955 9.18001C312.335 8.34001 313.895 7.65001 315.635 7.11001C317.375 6.57001 319.025 6.39001 320.585 6.57C322.145 6.87 323.435 7.71 324.455 9.09C325.475 10.47 325.985 12.03 325.985 13.77C325.985 16.41 324.815 18.39 322.475 19.71C323.975 20.73 325.025 21.93 325.625 23.31C326.225 24.69 326.525 26.16 326.525 27.72C326.525 29.1 326.285 30.42 325.805 31.68C325.325 32.88 324.485 33.99 323.285 35.01C322.145 35.97 320.615 36.81 318.695 37.53C316.835 38.25 314.525 38.79 311.765 39.15V41.49C312.965 41.43 314.105 41.37 315.185 41.31C316.265 41.25 317.255 41.16 318.155 41.04C320.555 40.8 322.475 41.25 323.915 42.39C325.355 43.47 326.075 44.97 326.075 46.89C326.075 48.99 325.415 50.67 324.095 51.93C322.835 53.19 321.035 53.91 318.695 54.09C316.595 54.27 313.955 54.42 310.775 54.54C307.655 54.66 304.445 54.72 301.145 54.72C297.845 54.72 294.635 54.69 291.515 54.63C288.455 54.51 285.935 54.36 283.955 54.18C281.615 54 279.785 53.28 278.465 52.02C277.205 50.7 276.575 48.99 276.575 46.89C276.575 44.97 277.205 43.47 278.465 42.39C279.785 41.25 281.615 40.83 283.955 41.13C284.975 41.25 286.115 41.34 287.375 41.4C288.695 41.46 290.105 41.52 291.605 41.58V39.15ZM350.825 42.84C350.705 43.44 350.615 44.01 350.555 44.55C350.555 45.09 350.495 45.63 350.375 46.17C349.895 49.53 348.635 51.99 346.595 53.55C344.615 55.05 342.035 55.8 338.855 55.8C335.195 55.8 332.285 54.9 330.125 53.1C328.025 51.3 327.245 48.6 327.785 45C328.145 42.66 328.385 40.11 328.505 37.35C328.685 34.59 328.775 31.8 328.775 28.98C328.775 26.1 328.685 23.34 328.505 20.7C328.385 18 328.175 15.6 327.875 13.5C327.575 11.46 327.635 9.69001 328.055 8.19001C328.475 6.69001 329.165 5.46001 330.125 4.5C331.145 3.54001 332.405 2.85001 333.905 2.43C335.405 1.95001 337.055 1.71001 338.855 1.71001C342.035 1.71001 344.615 2.52001 346.595 4.14001C348.635 5.70001 349.895 8.16001 350.375 11.52C350.495 12.24 350.585 13.02 350.645 13.86C350.765 14.64 350.885 15.45 351.005 16.29L353.705 16.02C355.805 15.78 357.425 16.74 358.565 18.9C359.705 21 360.275 24.54 360.275 29.52C360.275 34.5 359.705 38.07 358.565 40.23C357.425 42.39 355.805 43.35 353.705 43.11L350.825 42.84ZM295.295 24.66C296.675 26.04 298.145 27.24 299.705 28.26C301.325 29.22 303.095 30.03 305.015 30.69C305.375 30.81 305.705 30.78 306.005 30.6C306.365 30.42 306.605 30.18 306.725 29.88C306.905 29.58 306.935 29.28 306.815 28.98C306.755 28.68 306.515 28.44 306.095 28.26C304.355 27.72 302.705 27 301.145 26.1C299.585 25.14 298.145 23.94 296.825 22.5C296.525 22.2 296.225 22.11 295.925 22.23C295.625 22.29 295.355 22.47 295.115 22.77C294.935 23.01 294.845 23.31 294.845 23.67C294.845 24.03 294.995 24.36 295.295 24.66ZM278.195 69.21C278.075 67.77 278.405 66.48 279.185 65.34C279.965 64.14 281.075 63.09 282.515 62.19C284.015 61.29 285.785 60.51 287.825 59.85C289.865 59.19 292.085 58.65 294.485 58.23C297.725 57.69 301.055 57.24 304.475 56.88C307.955 56.52 311.435 56.28 314.915 56.16C318.395 56.04 321.815 56.04 325.175 56.16C328.595 56.28 331.835 56.55 334.895 56.97C339.215 57.63 342.575 58.62 344.975 59.94C347.435 61.2 349.175 62.64 350.195 64.26C350.855 65.34 351.305 66.54 351.545 67.86C351.785 69.12 351.815 70.38 351.635 71.64C351.515 72.9 351.185 74.1 350.645 75.24C350.165 76.38 349.535 77.37 348.755 78.21C346.955 80.25 344.615 81.63 341.735 82.35C338.915 83.13 335.165 83.58 330.485 83.7C325.625 83.82 321.665 83.31 318.605 82.17C315.605 81.09 313.955 79.5 313.655 77.4C313.295 73.62 314.855 70.47 318.335 67.95C318.575 67.83 318.665 67.68 318.605 67.5C318.605 67.26 318.545 67.05 318.425 66.87C318.305 66.69 318.125 66.57 317.885 66.51C317.705 66.45 317.525 66.51 317.345 66.69C315.785 68.25 314.045 69.6 312.125 70.74C310.205 71.82 308.195 72.72 306.095 73.44C303.995 74.16 301.835 74.67 299.615 74.97C297.395 75.33 295.235 75.54 293.135 75.6C290.975 75.6 288.995 75.54 287.195 75.42C285.455 75.3 283.925 75 282.605 74.52C281.285 74.1 280.235 73.47 279.455 72.63C278.735 71.73 278.315 70.59 278.195 69.21ZM416.633 47.97C416.993 45.51 417.263 42.72 417.443 39.6C417.623 36.42 417.713 33.21 417.713 29.97C417.713 26.73 417.623 23.58 417.443 20.52C417.323 17.46 417.083 14.76 416.723 12.42C416.483 10.56 416.573 8.97001 416.993 7.65001C417.473 6.33001 418.193 5.25001 419.153 4.41001C420.173 3.51001 421.403 2.85001 422.843 2.43C424.343 2.01001 425.993 1.80001 427.793 1.80001C430.973 1.80001 433.583 2.52001 435.623 3.96001C437.663 5.34001 438.893 7.56001 439.313 10.62C439.733 13.14 440.033 16.11 440.213 19.53C440.393 22.89 440.483 26.37 440.483 29.97C440.483 33.51 440.393 36.96 440.213 40.32C440.033 43.68 439.733 46.62 439.313 49.14C438.893 52.14 437.663 54.36 435.623 55.8C433.583 57.24 430.973 57.96 427.793 57.96C424.133 57.96 421.253 57.15 419.153 55.53C417.053 53.91 416.213 51.39 416.633 47.97ZM363.893 27.54C363.893 24.06 364.283 20.79 365.063 17.73C365.843 14.61 367.193 11.91 369.113 9.63001C371.033 7.29001 373.613 5.46001 376.853 4.14001C380.093 2.76001 384.173 2.07001 389.093 2.07001C394.013 2.07001 398.093 2.76001 401.333 4.14001C404.573 5.46001 407.153 7.29001 409.073 9.63001C410.993 11.91 412.343 14.61 413.123 17.73C413.963 20.79 414.383 24.06 414.383 27.54C414.383 30.96 413.933 34.2 413.033 37.26C412.133 40.26 410.693 42.9 408.713 45.18C406.733 47.4 404.123 49.17 400.883 50.49C397.703 51.81 393.773 52.47 389.093 52.47C384.413 52.47 380.453 51.81 377.213 50.49C374.033 49.17 371.453 47.4 369.473 45.18C367.493 42.9 366.053 40.26 365.153 37.26C364.313 34.2 363.893 30.96 363.893 27.54ZM382.343 25.02C383.663 26.76 385.373 28.26 387.473 29.52C389.573 30.78 391.763 31.68 394.043 32.22C394.583 32.34 395.033 32.28 395.393 32.04C395.753 31.8 395.993 31.5 396.113 31.14C396.293 30.72 396.323 30.33 396.203 29.97C396.143 29.61 395.933 29.37 395.573 29.25C393.413 28.59 391.403 27.69 389.543 26.55C387.683 25.41 385.913 24 384.233 22.32C383.933 22.08 383.603 22.02 383.243 22.14C382.943 22.2 382.643 22.38 382.343 22.68C382.103 22.98 381.953 23.34 381.893 23.76C381.833 24.18 381.983 24.6 382.343 25.02ZM366.503 68.76C366.503 64.26 367.523 60.78 369.563 58.32C371.603 55.8 374.303 54.3 377.663 53.82C379.463 53.52 381.233 53.46 382.973 53.64C384.773 53.76 386.453 54.12 388.013 54.72C389.573 55.32 390.923 56.16 392.063 57.24C393.263 58.26 394.163 59.49 394.763 60.93C395.123 61.83 395.363 62.91 395.483 64.17C395.663 65.37 395.693 66.57 395.573 67.77C395.453 68.97 395.153 70.11 394.673 71.19C394.193 72.27 393.533 73.11 392.693 73.71C392.393 73.89 392.213 74.13 392.153 74.43C392.093 74.73 392.123 75 392.243 75.24C392.363 75.48 392.543 75.63 392.783 75.69C393.083 75.75 393.383 75.63 393.683 75.33C396.083 73.59 398.573 71.82 401.153 70.02C403.733 68.22 406.433 66.6 409.253 65.16C412.133 63.72 415.103 62.55 418.163 61.65C421.283 60.69 424.523 60.21 427.883 60.21C429.563 60.21 431.153 60.39 432.653 60.75C434.153 61.05 435.503 61.59 436.703 62.37C437.903 63.09 438.893 64.05 439.673 65.25C440.453 66.39 440.963 67.8 441.203 69.48C441.563 73.14 440.693 76.08 438.593 78.3C436.553 80.58 432.893 82.05 427.613 82.71C424.793 83.07 421.643 83.34 418.163 83.52C414.743 83.76 411.113 83.88 407.273 83.88C403.433 83.94 399.413 83.91 395.213 83.79C391.073 83.73 386.873 83.58 382.613 83.34C379.973 83.16 377.633 82.65 375.593 81.81C373.613 80.97 371.933 79.89 370.553 78.57C369.233 77.25 368.213 75.75 367.493 74.07C366.833 72.39 366.503 70.62 366.503 68.76Z" fill="#FFFEF7"/>
</svg>
