<svg width="539" height="124" viewBox="0 0 539 124" fill="none" xmlns="http://www.w3.org/2000/svg">
<path d="M40.6 82.74C40.4133 86.2867 40.2267 89.6467 40.04 92.82C39.8533 95.9933 39.5733 99.12 39.2 102.2C38.92 104.813 38.3133 107.24 37.38 109.48C36.54 111.813 35.3733 113.82 33.88 115.5C32.3867 117.18 30.52 118.487 28.28 119.42C26.1333 120.447 23.6133 120.96 20.72 120.96C17.7333 120.96 15.12 120.447 12.88 119.42C10.7333 118.487 8.86666 117.18 7.27999 115.5C5.78666 113.82 4.61999 111.813 3.77999 109.48C2.93999 107.24 2.37999 104.813 2.09999 102.2C1.35333 96.2267 0.793326 89.6467 0.419993 82.46C0.139993 75.18 -6.97374e-06 68.04 -6.97374e-06 61.04C-6.97374e-06 54.04 0.0933264 47.3667 0.279993 41.02C0.46666 34.6733 0.933326 28.56 1.67999 22.68C2.14666 18.2 3.82666 14.5133 6.71999 11.62C9.61333 8.72666 13.16 6.43999 17.36 4.75999C21.6533 2.98666 26.32 1.77333 31.36 1.12C36.4933 0.373329 41.58 -5.00679e-06 46.62 -5.00679e-06C54.2733 -5.00679e-06 60.8067 0.373329 66.22 1.12C71.6333 1.86666 76.02 3.07999 79.38 4.75999C82.8333 6.43999 85.3067 8.63333 86.8 11.34C88.3867 14.0467 89.18 17.36 89.18 21.28C89.18 27.16 88.0133 31.5933 85.68 34.58C83.3467 37.4733 79.94 38.5467 75.46 37.8C73.5933 37.52 71.54 37.2867 69.3 37.1C67.06 36.9133 65.0533 36.82 63.28 36.82C58.24 36.82 53.9 37.1467 50.26 37.8C46.62 38.4533 43.3067 39.3867 40.32 40.6C39.5733 40.88 39.06 41.3 38.78 41.86C38.5 42.42 38.4067 42.98 38.5 43.54C38.6867 44.0067 39.0133 44.38 39.48 44.66C40.04 44.8467 40.74 44.8 41.58 44.52C44.66 43.4 48.02 42.56 51.66 42C55.3 41.3467 58.8467 41.02 62.3 41.02C65.8467 40.9267 69.16 41.16 72.24 41.72C75.32 42.28 77.7933 43.1667 79.66 44.38C81.2467 45.4067 82.6467 46.5267 83.86 47.74C85.0733 48.86 86.0533 50.1667 86.8 51.66C87.64 53.1533 88.2467 54.88 88.62 56.84C88.9933 58.8 89.18 61.0867 89.18 63.7C89.18 68.9267 88.3867 72.94 86.8 75.74C85.3067 78.54 82.9267 80.92 79.66 82.88C77.7933 84.0933 75.2733 84.98 72.1 85.54C69.02 86.1 65.66 86.38 62.02 86.38C58.38 86.2867 54.6467 85.96 50.82 85.4C47.0867 84.7467 43.68 83.86 40.6 82.74ZM134.974 35.84C132.641 38.2667 130.728 41.02 129.234 44.1C127.741 47.18 126.854 50.4 126.574 53.76C126.388 55.44 126.761 56.3733 127.694 56.56C128.721 56.7467 129.421 56.0933 129.794 54.6C131.661 46.2 134.694 40.32 138.894 36.96C143.094 33.5067 148.414 32.0133 154.854 32.48C157.748 32.6667 160.174 33.5067 162.134 35C164.188 36.4 165.774 38.1267 166.894 40.18C168.108 42.2333 168.948 44.4267 169.414 46.76C169.974 49.0933 170.254 51.24 170.254 53.2C170.254 55.0667 170.068 57.2133 169.694 59.64C169.414 61.9733 168.761 64.26 167.734 66.5C166.708 68.74 165.168 70.7 163.114 72.38C161.061 74.06 158.354 75.18 154.994 75.74C152.754 76.1133 150.374 75.88 147.854 75.04C145.428 74.1067 143.141 72.7533 140.994 70.98C139.968 70.0467 139.174 69.9067 138.614 70.56C138.054 71.2133 137.774 72.1467 137.774 73.36C137.588 78.4 137.354 83.44 137.074 88.48C136.794 93.52 136.421 98.56 135.954 103.6C135.674 106.213 135.068 108.64 134.134 110.88C133.294 113.213 132.128 115.22 130.634 116.9C129.141 118.58 127.274 119.887 125.034 120.82C122.888 121.847 120.368 122.36 117.474 122.36C114.488 122.36 111.874 121.847 109.634 120.82C107.394 119.887 105.481 118.58 103.894 116.9C102.401 115.22 101.234 113.213 100.394 110.88C99.5542 108.64 99.0409 106.213 98.8542 103.6C98.1075 93.3333 97.7809 83.16 97.8742 73.08C97.9675 62.9067 98.1075 52.6867 98.2942 42.42C98.3875 40.0867 98.9475 38.08 99.9742 36.4C101.094 34.72 102.588 33.74 104.454 33.46C105.948 33.18 107.674 32.9933 109.634 32.9C111.594 32.7133 113.648 32.62 115.794 32.62C119.901 32.62 123.774 32.9 127.414 33.46C131.148 34.02 133.668 34.8133 134.974 35.84ZM229.417 110.74C226.244 115.5 222.324 118.813 217.657 120.68C213.084 122.547 208.044 123.48 202.537 123.48C198.524 123.48 194.791 122.967 191.337 121.94C187.884 120.913 184.851 119.373 182.237 117.32C179.717 115.36 177.711 112.887 176.217 109.9C174.724 106.913 173.977 103.507 173.977 99.68C173.977 96.2267 174.584 93.1 175.797 90.3C177.104 87.4067 178.877 84.8867 181.117 82.74C183.357 80.5 186.017 78.68 189.097 77.28C192.177 75.88 195.491 74.8067 199.037 74.06C205.571 72.7533 211.077 70.7467 215.557 68.04C220.037 65.24 223.444 62.0667 225.777 58.52C226.244 57.8667 226.384 57.2133 226.197 56.56C226.011 55.9067 225.637 55.3933 225.077 55.02C224.611 54.6467 224.051 54.5067 223.397 54.6C222.744 54.6 222.184 54.9267 221.717 55.58C220.317 57.54 218.591 59.4067 216.537 61.18C214.577 62.86 212.384 64.3067 209.957 65.52C207.531 66.7333 204.871 67.7133 201.977 68.46C199.177 69.1133 196.284 69.44 193.297 69.44C187.791 69.44 183.637 68.18 180.837 65.66C178.037 63.0467 176.637 59.78 176.637 55.86C176.637 52.3133 177.711 49.14 179.857 46.34C182.004 43.4467 184.897 40.9733 188.537 38.92C192.177 36.8667 196.424 35.3267 201.277 34.3C206.131 33.18 211.264 32.62 216.677 32.62C227.877 32.62 236.744 34.58 243.277 38.5C249.811 42.42 254.524 48.4867 257.417 56.7C258.631 60.1533 259.517 64.0733 260.077 68.46C260.731 72.7533 261.057 77.2333 261.057 81.9C261.151 86.5667 260.917 91.28 260.357 96.04C259.891 100.8 259.191 105.327 258.257 109.62C256.391 118.02 251.537 122.22 243.697 122.22C235.857 122.22 231.097 118.393 229.417 110.74ZM205.617 100.8C208.977 100.333 212.197 99.1667 215.277 97.3C218.357 95.34 221.204 93.2867 223.817 91.14C224.471 90.58 224.797 89.9733 224.797 89.32C224.797 88.6667 224.611 88.1067 224.237 87.64C223.864 87.1733 223.397 86.8467 222.837 86.66C222.277 86.4733 221.764 86.5667 221.297 86.94C218.591 89.18 215.884 91.0467 213.177 92.54C210.471 94.0333 207.251 95.2467 203.517 96.18C202.957 96.3667 202.584 96.74 202.397 97.3C202.304 97.7667 202.351 98.28 202.537 98.84C202.724 99.4 203.051 99.9133 203.517 100.38C204.077 100.753 204.777 100.893 205.617 100.8ZM353.762 96.32C353.669 97.6267 353.576 98.8867 353.482 100.1C353.482 101.313 353.389 102.527 353.203 103.74C352.642 109.06 350.729 113.26 347.462 116.34C344.196 119.513 339.482 121.1 333.322 121.1C327.162 121.1 322.449 119.513 319.182 116.34C316.009 113.26 314.096 109.06 313.442 103.74C313.256 102.527 313.116 101.313 313.022 100.1C312.929 98.8867 312.836 97.6267 312.742 96.32C312.742 95.48 312.556 94.8267 312.182 94.36C311.809 93.8 311.389 93.4733 310.922 93.38C310.456 93.2867 309.989 93.4267 309.522 93.8C309.056 94.08 308.682 94.5467 308.402 95.2C308.216 96.6933 308.076 98.14 307.982 99.54C307.982 100.94 307.889 102.34 307.702 103.74C307.142 109.06 305.369 113.26 302.382 116.34C299.489 119.513 295.102 121.1 289.222 121.1C283.249 121.1 278.676 119.513 275.502 116.34C272.422 113.26 270.602 109.06 270.042 103.74C269.576 99.0733 269.202 94.22 268.922 89.18C268.736 84.0467 268.549 79.1467 268.362 74.48V49.42C268.362 44.38 269.902 40.32 272.982 37.24C276.062 34.16 280.122 32.62 285.162 32.62C289.176 32.62 292.956 33.2733 296.502 34.58C300.142 35.7933 302.709 37.9867 304.202 41.16C300.562 45.64 297.856 50.4 296.082 55.44C294.402 60.3867 293.842 65.6133 294.402 71.12C294.496 71.96 294.776 72.6133 295.242 73.08C295.709 73.4533 296.176 73.64 296.642 73.64C297.109 73.64 297.529 73.4533 297.902 73.08C298.276 72.7067 298.462 72.1467 298.462 71.4C298.182 67.8533 298.416 64.3067 299.162 60.76C299.909 57.12 301.029 53.76 302.522 50.68C304.016 47.6 305.789 44.8467 307.842 42.42C309.896 39.9 312.042 37.9867 314.282 36.68C316.242 35.3733 318.342 34.3933 320.582 33.74C322.822 32.9933 325.109 32.62 327.442 32.62C331.362 32.62 335.282 33.2733 339.202 34.58C343.122 35.7933 346.436 37.8933 349.142 40.88C346.062 44.8 343.822 49.0933 342.422 53.76C341.116 58.4267 340.602 63.28 340.882 68.32C341.256 70 342.002 70.7467 343.122 70.56C344.242 70.28 344.803 69.4867 344.803 68.18C344.616 64.7267 344.942 61.3667 345.782 58.1C346.622 54.74 347.742 51.7067 349.142 49C350.542 46.2 352.129 43.7267 353.903 41.58C355.676 39.4333 357.402 37.8 359.083 36.68C360.856 35.4667 363.002 34.5333 365.523 33.88C368.136 33.1333 370.889 32.76 373.782 32.76C378.262 32.76 382.276 33.6 385.822 35.28C389.463 36.96 392.636 39.7133 395.343 43.54C396.369 45.1267 397.209 46.76 397.863 48.44C398.516 50.0267 399.029 52.0333 399.402 54.46C399.776 56.7933 400.009 59.7333 400.102 63.28C400.196 66.7333 400.242 71.0733 400.242 76.3C400.242 79.1 400.196 81.62 400.102 83.86C400.009 86.0067 399.869 88.1533 399.683 90.3C399.496 92.3533 399.262 94.4533 398.982 96.6C398.796 98.7467 398.516 101.127 398.142 103.74C397.396 109.06 395.482 113.26 392.402 116.34C389.322 119.513 384.702 121.1 378.543 121.1C372.382 121.1 367.716 119.513 364.542 116.34C361.462 113.26 359.596 109.06 358.942 103.74C358.756 102.527 358.616 101.36 358.522 100.24C358.429 99.0267 358.336 97.7667 358.242 96.46C358.242 95.4333 358.009 94.6867 357.542 94.22C357.076 93.66 356.562 93.38 356.002 93.38C355.536 93.38 355.069 93.6133 354.602 94.08C354.136 94.5467 353.903 95.2933 353.903 96.32H353.762ZM430.453 38.92C428.026 38.92 425.693 38.5 423.453 37.66C421.306 36.82 419.393 35.56 417.713 33.88C416.033 32.2 414.68 30.1467 413.653 27.72C412.626 25.2933 412.113 22.54 412.113 19.46C412.113 16.5667 412.626 13.9533 413.653 11.62C414.68 9.19333 416.033 7.13999 417.713 5.45999C419.486 3.68666 421.446 2.33333 423.593 1.39999C425.833 0.466661 428.12 -5.00679e-06 430.453 -5.00679e-06C432.973 -5.00679e-06 435.353 0.559996 437.593 1.68C439.833 2.8 441.793 4.29333 443.473 6.16C445.153 8.02666 446.46 10.1733 447.393 12.6C448.326 14.9333 448.793 17.36 448.793 19.88C448.793 22.4933 448.326 24.9667 447.393 27.3C446.46 29.54 445.2 31.5467 443.613 33.32C442.026 35 440.066 36.3533 437.733 37.38C435.493 38.4067 433.066 38.92 430.453 38.92ZM411.693 109.34C410.386 101.033 409.733 92.4933 409.733 83.72C409.733 74.8533 410.386 66.2667 411.693 57.96C412.16 54.6933 413.886 51.94 416.873 49.7C419.953 47.3667 424.48 46.2 430.453 46.2C436.24 46.2 440.58 47.3667 443.473 49.7C446.46 51.94 448.233 54.6933 448.793 57.96C450.193 66.2667 450.893 74.8533 450.893 83.72C450.893 92.4933 450.193 101.033 448.793 109.34C448.233 112.607 446.46 115.36 443.473 117.6C440.58 119.933 436.24 121.1 430.453 121.1C424.48 121.1 419.953 119.933 416.873 117.6C413.886 115.36 412.16 112.607 411.693 109.34ZM477.259 115.78C474.086 113.82 471.332 111.44 468.999 108.64C466.666 105.933 464.706 102.993 463.119 99.82C461.532 96.5533 460.319 93.1467 459.479 89.6C458.732 86.0533 458.312 82.46 458.219 78.82C458.126 74.5267 458.546 70.28 459.479 66.08C460.412 61.7867 461.766 57.82 463.539 54.18C465.406 50.4467 467.692 47.1333 470.399 44.24C473.106 41.3467 476.279 39.06 479.919 37.38C483.466 35.7933 487.106 34.6267 490.839 33.88C494.666 33.04 498.446 32.62 502.179 32.62C507.126 32.62 511.839 33.2733 516.319 34.58C520.799 35.7933 524.672 37.7067 527.939 40.32C531.206 42.9333 533.726 46.2467 535.499 50.26C537.366 54.2733 538.159 59.0333 537.879 64.54C537.506 71.1667 535.592 76.2067 532.139 79.66C528.686 83.1133 523.412 85.68 516.319 87.36C514.452 87.8267 512.399 88.1067 510.159 88.2C508.012 88.2933 505.866 88.1533 503.719 87.78C501.666 87.4067 499.706 86.7533 497.839 85.82C496.066 84.8867 494.666 83.58 493.639 81.9C493.266 81.34 492.519 81.1533 491.399 81.34C490.372 81.4333 489.952 82.1333 490.139 83.44C490.232 84.4667 490.746 85.54 491.679 86.66C492.612 87.78 493.826 88.8533 495.319 89.88C496.906 90.8133 498.726 91.6067 500.779 92.26C502.832 92.82 505.119 93.1 507.639 93.1C508.572 93.1 509.599 93.0067 510.719 92.82C511.932 92.54 512.959 92.3067 513.799 92.12C516.972 91.1867 519.679 90.5333 521.919 90.16C524.252 89.7867 526.259 89.8333 527.939 90.3C529.712 90.7667 531.206 91.7933 532.419 93.38C533.632 94.8733 534.752 97.0667 535.779 99.96C537.366 104.44 536.899 108.313 534.379 111.58C531.952 114.847 527.239 117.553 520.239 119.7C516.879 120.727 513.892 121.38 511.279 121.66C508.759 121.94 505.772 122.08 502.319 122.08C497.839 122.08 493.452 121.613 489.159 120.68C484.866 119.747 480.899 118.113 477.259 115.78ZM495.879 63.28C499.426 62.2533 502.739 61.7867 505.819 61.88C508.992 61.88 512.259 62.2533 515.619 63C516.179 63.0933 516.646 62.9067 517.019 62.44C517.486 61.9733 517.766 61.46 517.859 60.9C517.952 60.2467 517.859 59.64 517.579 59.08C517.299 58.52 516.739 58.1467 515.899 57.96C512.632 57.2133 509.179 56.7467 505.539 56.56C501.992 56.28 498.632 56.7933 495.459 58.1C494.712 58.38 494.199 58.8467 493.919 59.5C493.732 60.06 493.686 60.6667 493.779 61.32C493.872 61.9733 494.106 62.5333 494.479 63C494.852 63.3733 495.319 63.4667 495.879 63.28Z" fill="#3C4FD0"/>
</svg>
