<svg width="528" height="83" viewBox="0 0 528 83" fill="none" xmlns="http://www.w3.org/2000/svg">
<path d="M13.6802 35.73C13.3802 33.39 13.2002 30.99 13.1402 28.53C13.0802 26.01 13.1402 23.49 13.3202 20.97C12.9002 20.91 12.5102 20.88 12.1502 20.88C11.7902 20.82 11.4002 20.76 10.9802 20.7C8.58016 20.46 6.60016 19.68 5.04016 18.36C3.54016 16.98 2.79016 14.88 2.79016 12.06C2.79016 9.3 3.54016 7.23 5.04016 5.85C6.60016 4.47 8.58016 3.66 10.9802 3.42C15.4202 2.94 20.1902 2.58 25.2902 2.34001C30.3902 2.10001 35.4302 1.98001 40.4102 1.98001C45.3302 1.98001 50.3402 2.10001 55.4402 2.34001C60.6002 2.58 65.4002 2.94 69.8402 3.42C72.2402 3.66 74.1902 4.47 75.6902 5.85C77.2502 7.23 78.0302 9.3 78.0302 12.06C78.0302 14.88 77.2502 16.98 75.6902 18.36C74.1902 19.68 72.2402 20.46 69.8402 20.7L66.8702 20.97C67.0502 23.49 67.1102 26.01 67.0502 28.53C66.9902 30.99 66.8102 33.36 66.5102 35.64C67.1102 35.7 67.6802 35.76 68.2202 35.82C68.7602 35.88 69.3002 35.94 69.8402 36C72.2402 36.24 74.1902 37.05 75.6902 38.43C77.2502 39.81 78.0302 41.91 78.0302 44.73C78.0302 47.49 77.2502 49.56 75.6902 50.94C74.1902 52.26 72.2402 53.04 69.8402 53.28C65.4002 53.76 60.6002 54.12 55.4402 54.36C50.3402 54.6 45.3302 54.72 40.4102 54.72C35.4302 54.72 30.3902 54.6 25.2902 54.36C20.1902 54.12 15.4202 53.76 10.9802 53.28C8.58016 53.04 6.60016 52.26 5.04016 50.94C3.54016 49.56 2.79016 47.49 2.79016 44.73C2.79016 41.91 3.54016 39.81 5.04016 38.43C6.60016 37.05 8.58016 36.24 10.9802 36L13.6802 35.73ZM40.4102 34.56H44.2802C44.2202 32.46 44.2202 30.39 44.2802 28.35C44.4002 26.31 44.6102 24.24 44.9102 22.14H40.4102H35.3702C35.6702 24.24 35.8802 26.31 36.0002 28.35C36.1202 30.39 36.1202 32.46 36.0002 34.56H40.4102ZM10.8902 80.37C7.47016 80.01 4.80016 78.81 2.88016 76.77C0.960156 74.79 0.000156298 71.85 0.000156298 67.95C0.000156298 66.39 0.240156 64.92 0.720156 63.54C1.20016 62.16 1.92016 60.99 2.88016 60.03C3.84016 59.01 4.98016 58.26 6.30016 57.78C7.62016 57.24 9.15016 57.06 10.8902 57.24C20.9102 58.26 30.6902 58.77 40.2302 58.77C49.8302 58.77 59.6702 58.26 69.7502 57.24C71.4902 57.06 73.0202 57.24 74.3402 57.78C75.7202 58.26 76.8602 59.01 77.7602 60.03C78.7202 60.99 79.4402 62.16 79.9202 63.54C80.4002 64.92 80.6402 66.39 80.6402 67.95C80.6402 71.85 79.6802 74.79 77.7602 76.77C75.9002 78.81 73.2002 80.01 69.6602 80.37C59.6402 81.39 49.8302 81.9 40.2302 81.9C30.6902 81.9 20.9102 81.39 10.8902 80.37ZM157.698 82.71C154.998 82.71 152.868 81.69 151.308 79.65C149.748 77.61 149.118 74.55 149.418 70.47C150.318 60.75 150.768 51.09 150.768 41.49C150.768 31.89 150.348 22.44 149.508 13.14C149.148 8.64 149.748 5.34 151.308 3.24001C152.868 1.08 154.998 4.05312e-06 157.698 4.05312e-06C160.098 4.05312e-06 162.078 0.900003 163.638 2.7C165.258 4.5 166.218 7.26 166.518 10.98C167.238 20.76 167.598 30.9 167.598 41.4C167.598 51.9 167.238 62.07 166.518 71.91C166.218 75.51 165.258 78.21 163.638 80.01C162.078 81.81 160.098 82.71 157.698 82.71ZM130.878 25.56C130.758 23.58 130.638 21.63 130.518 19.71C130.458 17.73 130.338 15.78 130.158 13.86C129.738 9.42 130.308 6.18 131.868 4.14C133.488 2.04 135.648 0.990002 138.348 0.990002C140.748 0.990002 142.728 1.86 144.288 3.60001C145.848 5.34001 146.778 8.01 147.078 11.61C147.738 21.27 148.068 31.26 148.068 41.58C148.068 51.9 147.738 61.89 147.078 71.55C146.778 75.15 145.848 77.82 144.288 79.56C142.728 81.3 140.748 82.17 138.348 82.17C135.648 82.17 133.488 81.15 131.868 79.11C130.248 77.07 129.618 74.07 129.978 70.11C130.278 66.51 130.518 62.91 130.698 59.31C130.878 55.71 131.028 52.11 131.148 48.51H128.538C126.798 48.51 125.328 47.82 124.128 46.44C122.988 45 122.298 42.75 122.058 39.69C121.398 40.77 120.558 41.67 119.538 42.39C118.578 43.05 117.438 43.41 116.118 43.47C112.098 43.59 108.588 44.1 105.588 45C102.648 45.84 100.098 46.83 97.9377 47.97C97.5777 48.15 97.3677 48.42 97.3077 48.78C97.2477 49.08 97.2777 49.41 97.3977 49.77C97.5177 50.07 97.6977 50.31 97.9377 50.49C98.1777 50.67 98.4777 50.67 98.8377 50.49C101.298 49.47 103.788 48.54 106.308 47.7C108.888 46.8 111.648 46.26 114.588 46.08C119.268 45.9 122.748 47.13 125.028 49.77C127.308 52.41 128.628 56.1 128.988 60.84C129.288 64.8 128.838 67.98 127.638 70.38C126.498 72.78 124.848 74.64 122.688 75.96C120.588 77.28 118.098 78.15 115.218 78.57C112.398 78.99 109.458 79.2 106.398 79.2C99.0777 79.2 93.7377 77.97 90.3777 75.51C87.0777 73.05 85.0977 69.57 84.4377 65.07C83.8977 61.29 83.5977 57.54 83.5377 53.82C83.4777 50.04 83.7777 46.53 84.4377 43.29C84.7977 41.55 85.2177 39.96 85.6977 38.52C86.1777 37.08 86.8077 35.85 87.5877 34.83C88.4277 33.75 89.4777 32.91 90.7377 32.31C91.9977 31.71 93.5577 31.38 95.4177 31.32C97.2177 31.26 98.9877 31.14 100.728 30.96C102.468 30.72 104.298 30.45 106.218 30.15C106.518 30.09 106.728 29.91 106.848 29.61C107.028 29.31 107.118 28.98 107.118 28.62C107.118 28.26 107.028 27.96 106.848 27.72C106.728 27.42 106.518 27.3 106.218 27.36C104.478 27.6 102.828 27.84 101.268 28.08C99.7677 28.32 98.1477 28.47 96.4077 28.53C91.8477 28.65 88.6977 27.75 86.9577 25.83C85.2777 23.91 84.4377 21.12 84.4377 17.46C84.4377 10.2 88.6377 5.67 97.0377 3.87C99.1977 3.45 101.298 3.24001 103.338 3.24001C105.378 3.18 107.388 3.24 109.368 3.42C111.048 3.54 112.638 3.84 114.138 4.32C115.638 4.8 116.988 5.52 118.188 6.48C119.448 7.38 120.498 8.55 121.338 9.99C122.238 11.43 122.868 13.17 123.228 15.21C123.948 19.41 124.278 23.58 124.218 27.72C125.298 26.22 126.738 25.47 128.538 25.47L130.878 25.56ZM224.855 40.32C225.575 35.34 225.935 30.33 225.935 25.29C225.935 20.19 225.605 15.3 224.945 10.62C224.705 8.76 224.795 7.17 225.215 5.85C225.695 4.53 226.415 3.45 227.375 2.61C228.395 1.71 229.625 1.05 231.065 0.630001C232.565 0.210003 234.215 4.05312e-06 236.015 4.05312e-06C239.195 4.05312e-06 241.805 0.720004 243.845 2.16C245.885 3.54 247.115 5.76 247.535 8.82C248.375 13.92 248.795 19.35 248.795 25.11C248.795 30.87 248.375 36.3 247.535 41.4C247.115 44.46 245.885 46.68 243.845 48.06C241.805 49.44 239.195 50.13 236.015 50.13C232.355 50.13 229.475 49.35 227.375 47.79C225.275 46.17 224.435 43.68 224.855 40.32ZM172.115 24.93C172.115 21.39 172.505 18.12 173.285 15.12C174.065 12.06 175.415 9.45 177.335 7.29C179.255 5.07 181.835 3.36 185.075 2.16C188.315 0.900005 192.395 0.270006 197.315 0.270006C202.235 0.270006 206.315 0.900005 209.555 2.16C212.795 3.36 215.375 5.07 217.295 7.29C219.215 9.45 220.565 12.06 221.345 15.12C222.185 18.12 222.605 21.39 222.605 24.93C222.605 28.41 222.155 31.62 221.255 34.56C220.355 37.5 218.915 40.05 216.935 42.21C214.955 44.31 212.345 45.96 209.105 47.16C205.925 48.36 201.995 48.96 197.315 48.96C192.635 48.96 188.675 48.36 185.435 47.16C182.255 45.96 179.675 44.31 177.695 42.21C175.715 40.05 174.275 37.5 173.375 34.56C172.535 31.62 172.115 28.41 172.115 24.93ZM190.565 22.41C191.885 24.15 193.595 25.65 195.695 26.91C197.795 28.17 199.985 29.07 202.265 29.61C202.805 29.73 203.255 29.67 203.615 29.43C203.975 29.13 204.215 28.8 204.335 28.44C204.515 28.08 204.545 27.72 204.425 27.36C204.365 27 204.155 26.76 203.795 26.64C201.635 25.98 199.625 25.08 197.765 23.94C195.905 22.74 194.135 21.33 192.455 19.71C192.155 19.47 191.825 19.41 191.465 19.53C191.165 19.59 190.865 19.77 190.565 20.07C190.325 20.37 190.175 20.73 190.115 21.15C190.055 21.57 190.205 21.99 190.565 22.41ZM174.635 75.69C174.335 74.55 174.095 73.2 173.915 71.64C173.795 70.08 173.735 68.49 173.735 66.87C173.735 65.19 173.795 63.6 173.915 62.1C174.035 60.6 174.215 59.31 174.455 58.23C174.875 56.31 175.685 54.96 176.885 54.18C178.085 53.4 179.855 52.83 182.195 52.47C186.575 51.87 191.225 51.42 196.145 51.12C201.125 50.82 206.135 50.67 211.175 50.67C216.215 50.67 221.195 50.82 226.115 51.12C231.095 51.42 235.775 51.87 240.155 52.47C242.555 52.83 244.325 53.4 245.465 54.18C246.665 54.96 247.475 56.31 247.895 58.23C248.135 59.31 248.315 60.6 248.435 62.1C248.555 63.6 248.585 65.19 248.525 66.87C248.525 68.49 248.435 70.08 248.255 71.64C248.135 73.2 247.925 74.55 247.625 75.69C247.145 77.61 246.365 78.99 245.285 79.83C244.265 80.67 242.555 81.21 240.155 81.45C235.715 81.93 231.035 82.26 226.115 82.44C221.195 82.68 216.215 82.8 211.175 82.8C206.135 82.8 201.155 82.68 196.235 82.44C191.315 82.26 186.635 81.93 182.195 81.45C179.855 81.15 178.145 80.58 177.065 79.74C175.985 78.96 175.175 77.61 174.635 75.69ZM203.615 66.51C203.075 67.29 203.465 68.04 204.785 68.76C206.825 69.9 208.955 70.47 211.175 70.47C213.455 70.41 215.645 69.84 217.745 68.76C218.585 68.22 218.885 67.56 218.645 66.78C218.525 66.36 218.255 66.06 217.835 65.88C217.475 65.64 217.085 65.64 216.665 65.88C215.045 66.78 213.185 67.23 211.085 67.23C209.045 67.17 207.215 66.69 205.595 65.79C205.355 65.61 205.025 65.58 204.605 65.7C204.185 65.82 203.855 66.09 203.615 66.51ZM331.433 56.07C331.313 58.77 331.163 61.44 330.983 64.08C330.863 66.72 330.653 69.33 330.353 71.91C329.933 75.51 328.673 78.21 326.573 80.01C324.533 81.81 321.893 82.71 318.653 82.71C314.993 82.71 312.083 81.69 309.923 79.65C307.823 77.61 307.043 74.55 307.583 70.47C308.603 60.75 309.113 51.09 309.113 41.49C309.113 31.89 308.603 22.44 307.583 13.14C307.043 8.7 307.823 5.4 309.923 3.24001C312.083 1.08 314.993 4.05312e-06 318.653 4.05312e-06C321.893 4.05312e-06 324.533 0.900003 326.573 2.7C328.673 4.5 329.933 7.26 330.353 10.98C330.533 13.08 330.713 15.21 330.893 17.37C331.073 19.47 331.223 21.6 331.343 23.76L332.963 23.58C335.063 23.22 336.683 24.33 337.823 26.91C338.963 29.49 339.533 33.78 339.533 39.78C339.533 45.84 338.963 50.16 337.823 52.74C336.683 55.32 335.063 56.49 332.963 56.25L331.433 56.07ZM284.813 34.83C285.833 34.53 287.003 33.93 288.323 33.03C289.643 32.13 290.753 31.29 291.653 30.51C292.193 30.03 292.313 29.55 292.013 29.07C291.713 28.59 291.293 28.56 290.753 28.98C289.973 29.52 289.013 30.12 287.873 30.78C286.793 31.38 285.383 31.92 283.643 32.4C281.963 32.82 279.893 33.12 277.433 33.3C274.973 33.48 272.003 33.36 268.523 32.94C267.143 32.76 265.673 32.43 264.113 31.95C262.553 31.47 261.083 30.78 259.703 29.88C258.383 28.98 257.243 27.78 256.283 26.28C255.383 24.78 254.843 22.89 254.663 20.61C254.363 16.59 254.963 13.32 256.463 10.8C257.963 8.22001 260.153 6.21 263.033 4.77C265.913 3.33 269.363 2.34 273.383 1.8C277.403 1.26 281.813 0.990002 286.613 0.990002C292.433 0.990002 296.843 2.58 299.843 5.76C302.843 8.88 304.703 13.17 305.423 18.63C305.843 21.69 306.143 24.54 306.323 27.18C306.563 29.76 306.683 32.25 306.683 34.65C306.683 37.05 306.533 39.42 306.233 41.76C305.993 44.1 305.633 46.53 305.153 49.05C304.493 52.47 303.263 55.05 301.463 56.79C299.663 58.53 297.323 59.4 294.443 59.4C291.443 59.4 289.073 58.77 287.333 57.51C285.593 56.25 284.393 54 283.733 50.76C283.133 47.7 282.923 44.79 283.103 42.03C283.283 39.21 283.853 36.81 284.813 34.83ZM262.403 60.66C261.803 58.14 261.383 55.83 261.143 53.73C260.903 51.57 260.783 49.47 260.783 47.43C260.783 43.59 261.593 40.86 263.213 39.24C264.833 37.56 267.503 36.72 271.223 36.72C275.183 36.72 277.883 37.71 279.323 39.69C280.823 41.61 281.573 44.52 281.573 48.42C281.573 52.62 281.093 56.94 280.133 61.38C283.733 61.38 287.213 61.32 290.573 61.2C293.933 61.02 296.693 60.78 298.853 60.48C301.133 60.12 302.903 60.78 304.163 62.46C305.483 64.08 306.143 66.21 306.143 68.85C306.143 71.85 305.483 74.25 304.163 76.05C302.903 77.91 301.133 78.99 298.853 79.29C296.693 79.59 293.963 79.8 290.663 79.92C287.363 80.1 283.943 80.19 280.403 80.19C276.923 80.19 273.563 80.13 270.323 80.01C267.083 79.89 264.443 79.68 262.403 79.38C260.123 79.08 258.323 78 257.003 76.14C255.683 74.28 255.023 71.85 255.023 68.85C255.023 66.21 255.683 64.11 257.003 62.55C258.323 60.93 260.123 60.3 262.403 60.66ZM418.433 40.32C419.093 35.34 419.423 30.33 419.423 25.29C419.423 20.19 419.123 15.3 418.523 10.62C417.983 6.96 418.763 4.29 420.863 2.61C422.963 0.870004 425.873 4.05312e-06 429.593 4.05312e-06C432.773 4.05312e-06 435.383 0.720004 437.423 2.16C439.463 3.54 440.723 5.76 441.203 8.82C441.923 13.92 442.283 19.35 442.283 25.11C442.283 30.87 441.923 36.3 441.203 41.4C440.723 44.46 439.463 46.68 437.423 48.06C435.383 49.44 432.773 50.13 429.593 50.13C425.873 50.13 422.963 49.35 420.863 47.79C418.763 46.17 417.953 43.68 418.433 40.32ZM376.673 22.59C377.873 24.03 378.953 25.86 379.913 28.08C380.933 30.24 381.443 32.73 381.443 35.55C381.443 39.03 380.783 41.85 379.463 44.01C378.203 46.17 375.923 47.25 372.623 47.25C370.823 47.25 369.263 46.86 367.943 46.08C366.683 45.24 365.663 44.13 364.883 42.75C364.103 41.31 363.533 39.66 363.173 37.8C362.813 35.88 362.693 33.87 362.813 31.77C362.873 30.57 362.933 29.25 362.993 27.81C363.053 26.31 363.173 24.81 363.353 23.31C363.593 21.75 363.953 20.22 364.433 18.72C364.913 17.16 365.573 15.72 366.413 14.4C365.033 14.22 363.953 13.71 363.173 12.87C362.453 12.03 362.093 10.83 362.093 9.27C362.093 8.07 362.393 7.05 362.993 6.21C363.593 5.37 364.373 4.68 365.333 4.14C366.353 3.54 367.493 3.09001 368.753 2.79001C370.073 2.43 371.393 2.19 372.713 2.07C374.993 1.83 377.453 1.65 380.093 1.53001C382.733 1.41 385.403 1.35 388.103 1.35C390.863 1.35 393.563 1.41 396.203 1.53001C398.843 1.65 401.303 1.83 403.583 2.07C404.903 2.19 406.193 2.43 407.453 2.79001C408.773 3.09001 409.913 3.54 410.873 4.14C411.833 4.68 412.613 5.37 413.213 6.21C413.813 7.05 414.113 8.07 414.113 9.27C414.113 12.39 412.643 14.13 409.703 14.49C410.603 15.75 411.383 17.1 412.043 18.54C412.703 19.98 413.213 21.42 413.573 22.86C413.993 24.3 414.323 25.74 414.563 27.18C414.803 28.56 414.983 29.82 415.103 30.96C415.403 34.14 415.493 36.78 415.373 38.88C415.253 40.92 414.923 42.57 414.383 43.83C413.843 45.09 413.093 45.99 412.133 46.53C411.173 47.01 410.033 47.25 408.713 47.25C405.893 47.25 404.003 46.62 403.043 45.36C402.143 44.04 401.723 42.3 401.783 40.14C401.903 36.06 401.513 32.43 400.613 29.25C399.713 26.07 398.123 23.4 395.843 21.24C395.603 21 395.303 20.85 394.943 20.79C394.643 20.73 394.373 20.79 394.133 20.97C393.833 21.27 393.713 21.57 393.773 21.87C393.893 22.11 394.073 22.35 394.313 22.59C395.513 23.97 396.593 25.74 397.553 27.9C398.573 30 399.083 32.55 399.083 35.55C399.083 37.11 398.903 38.61 398.543 40.05C398.243 41.43 397.733 42.66 397.013 43.74C396.353 44.82 395.483 45.69 394.403 46.35C393.323 46.95 392.063 47.25 390.623 47.25C387.803 47.25 385.973 46.59 385.133 45.27C384.353 43.95 383.993 42.24 384.053 40.14C384.173 36.06 383.753 32.4 382.793 29.16C381.833 25.86 380.243 23.19 378.023 21.15C377.843 20.91 377.573 20.79 377.213 20.79C376.913 20.73 376.643 20.79 376.403 20.97C376.103 21.27 375.983 21.57 376.043 21.87C376.163 22.11 376.373 22.35 376.673 22.59ZM408.443 61.65C405.023 64.89 401.153 67.38 396.833 69.12C392.513 70.86 387.623 71.67 382.163 71.55C377.843 71.43 374.453 70.77 371.993 69.57C369.533 68.31 368.213 66.27 368.033 63.45C367.913 62.01 368.183 60.72 368.843 59.58C369.503 58.44 370.493 57.42 371.813 56.52C373.193 55.62 374.843 54.87 376.763 54.27C378.743 53.61 380.933 53.1 383.333 52.74C386.993 52.2 390.713 51.75 394.493 51.39C398.333 50.97 402.113 50.67 405.833 50.49C409.553 50.31 413.153 50.31 416.633 50.49C420.173 50.61 423.443 50.97 426.443 51.57C430.703 52.41 434.093 53.58 436.613 55.08C439.133 56.58 440.843 58.26 441.743 60.12C442.343 61.38 442.733 62.7 442.913 64.08C443.153 65.46 443.183 66.81 443.003 68.13C442.883 69.45 442.583 70.71 442.103 71.91C441.623 73.11 440.993 74.1 440.213 74.88C438.413 76.8 436.103 78.42 433.283 79.74C430.463 81.12 426.713 81.87 422.033 81.99C417.113 82.11 413.273 81.36 410.513 79.74C407.813 78.18 406.073 76.2 405.293 73.8C404.633 71.94 404.813 70.05 405.833 68.13C406.853 66.21 408.353 64.29 410.333 62.37C410.693 61.95 410.573 61.65 409.973 61.47C409.433 61.29 408.923 61.35 408.443 61.65ZM514.03 82.71C512.23 82.71 510.58 82.44 509.08 81.9C507.58 81.42 506.32 80.67 505.3 79.65C504.28 78.63 503.53 77.34 503.05 75.78C502.57 74.28 502.45 72.51 502.69 70.47C503.83 60.75 504.4 51.09 504.4 41.49C504.4 31.89 503.86 22.44 502.78 13.14C502.3 8.64 503.14 5.34 505.3 3.24001C507.46 1.08 510.37 4.05312e-06 514.03 4.05312e-06C517.21 4.05312e-06 519.82 0.900003 521.86 2.7C523.96 4.5 525.19 7.26 525.55 10.98C526.57 20.76 527.08 30.9 527.08 41.4C527.08 51.9 526.57 62.07 525.55 71.91C525.19 75.51 523.96 78.21 521.86 80.01C519.82 81.81 517.21 82.71 514.03 82.71ZM457.24 57.96C457.48 54.48 458.38 51.09 459.94 47.79C461.56 44.49 463.57 41.4 465.97 38.52C468.43 35.64 471.16 33.03 474.16 30.69C477.16 28.29 480.19 26.25 483.25 24.57C483.61 24.33 483.79 24.03 483.79 23.67C483.85 23.25 483.79 22.89 483.61 22.59C483.43 22.23 483.16 21.99 482.8 21.87C482.44 21.69 482.08 21.72 481.72 21.96C479.2 23.82 476.35 25.41 473.17 26.73C469.99 27.99 466.81 28.74 463.63 28.98C461.95 29.16 460.24 29.07 458.5 28.71C456.82 28.35 455.26 27.75 453.82 26.91C452.44 26.07 451.24 25.02 450.22 23.76C449.2 22.5 448.54 21.06 448.24 19.44C447.94 17.7 447.97 16.11 448.33 14.67C448.75 13.17 449.41 11.85 450.31 10.71C451.21 9.51 452.32 8.49 453.64 7.65C455.02 6.75 456.55 6 458.23 5.4C460.93 4.38 463.87 3.69 467.05 3.33C470.23 2.97001 473.8 2.79001 477.76 2.79001C480.88 2.79001 483.58 3.21001 485.86 4.05001C488.2 4.83 490.15 5.94 491.71 7.38001C493.33 8.82 494.59 10.59 495.49 12.69C496.45 14.73 497.17 17.01 497.65 19.53C498.25 22.71 498.67 26.16 498.91 29.88C499.15 33.54 499.21 37.26 499.09 41.04C498.97 44.82 498.67 48.6 498.19 52.38C497.77 56.1 497.17 59.58 496.39 62.82C495.79 65.34 494.89 67.68 493.69 69.84C492.49 71.94 490.99 73.74 489.19 75.24C487.39 76.74 485.26 77.85 482.8 78.57C480.34 79.35 477.55 79.65 474.43 79.47C471.73 79.29 469.27 78.63 467.05 77.49C464.89 76.41 463.03 74.94 461.47 73.08C459.97 71.28 458.83 69.12 458.05 66.6C457.33 64.02 457.06 61.14 457.24 57.96Z" fill="#3C4FD0"/>
</svg>
