<svg width="442" height="85" viewBox="0 0 442 85" fill="none" xmlns="http://www.w3.org/2000/svg">
<path d="M13.6799 37.53C13.3799 35.19 13.1999 32.79 13.1399 30.33C13.0799 27.81 13.1399 25.29 13.3199 22.77C12.8999 22.71 12.5099 22.68 12.1499 22.68C11.7899 22.62 11.3999 22.56 10.9799 22.5C8.57991 22.26 6.59991 21.48 5.03991 20.16C3.53991 18.78 2.78991 16.68 2.78991 13.86C2.78991 11.1 3.53991 9.03001 5.03991 7.65001C6.59991 6.27001 8.57991 5.46001 10.9799 5.22001C15.4199 4.74001 20.1899 4.38001 25.2899 4.14001C30.3899 3.90001 35.4299 3.78001 40.4099 3.78001C45.3299 3.78001 50.3399 3.90001 55.4399 4.14001C60.5999 4.38001 65.3999 4.74001 69.8399 5.22001C72.2399 5.46001 74.1899 6.27001 75.6899 7.65001C77.2499 9.03001 78.0299 11.1 78.0299 13.86C78.0299 16.68 77.2499 18.78 75.6899 20.16C74.1899 21.48 72.2399 22.26 69.8399 22.5L66.8699 22.77C67.0499 25.29 67.1099 27.81 67.0499 30.33C66.9899 32.79 66.8099 35.16 66.5099 37.44C67.1099 37.5 67.6799 37.56 68.2199 37.62C68.7599 37.68 69.2999 37.74 69.8399 37.8C72.2399 38.04 74.1899 38.85 75.6899 40.23C77.2499 41.61 78.0299 43.71 78.0299 46.53C78.0299 49.29 77.2499 51.36 75.6899 52.74C74.1899 54.06 72.2399 54.84 69.8399 55.08C65.3999 55.56 60.5999 55.92 55.4399 56.16C50.3399 56.4 45.3299 56.52 40.4099 56.52C35.4299 56.52 30.3899 56.4 25.2899 56.16C20.1899 55.92 15.4199 55.56 10.9799 55.08C8.57991 54.84 6.59991 54.06 5.03991 52.74C3.53991 51.36 2.78991 49.29 2.78991 46.53C2.78991 43.71 3.53991 41.61 5.03991 40.23C6.59991 38.85 8.57991 38.04 10.9799 37.8L13.6799 37.53ZM40.4099 36.36H44.2799C44.2199 34.26 44.2199 32.19 44.2799 30.15C44.3999 28.11 44.6099 26.04 44.9099 23.94H40.4099H35.3699C35.6699 26.04 35.8799 28.11 35.9999 30.15C36.1199 32.19 36.1199 34.26 35.9999 36.36H40.4099ZM10.8899 82.17C7.46991 81.81 4.79991 80.61 2.87991 78.57C0.959912 76.59 -8.78423e-05 73.65 -8.78423e-05 69.75C-8.78423e-05 68.19 0.239912 66.72 0.719912 65.34C1.19991 63.96 1.91991 62.79 2.87991 61.83C3.83991 60.81 4.97991 60.06 6.29991 59.58C7.61991 59.04 9.14991 58.86 10.8899 59.04C20.9099 60.06 30.6899 60.57 40.2299 60.57C49.8299 60.57 59.6699 60.06 69.7499 59.04C71.4899 58.86 73.0199 59.04 74.3399 59.58C75.7199 60.06 76.8599 60.81 77.7599 61.83C78.7199 62.79 79.4399 63.96 79.9199 65.34C80.3999 66.72 80.6399 68.19 80.6399 69.75C80.6399 73.65 79.6799 76.59 77.7599 78.57C75.8999 80.61 73.1999 81.81 69.6599 82.17C59.6399 83.19 49.8299 83.7 40.2299 83.7C30.6899 83.7 20.9099 83.19 10.8899 82.17ZM157.697 84.51C154.997 84.51 152.867 83.49 151.307 81.45C149.747 79.41 149.117 76.35 149.417 72.27C150.317 62.55 150.767 52.89 150.767 43.29C150.767 33.69 150.347 24.24 149.507 14.94C149.147 10.44 149.747 7.14001 151.307 5.04001C152.867 2.88001 154.997 1.80001 157.697 1.80001C160.097 1.80001 162.077 2.70001 163.637 4.5C165.257 6.30001 166.217 9.06001 166.517 12.78C167.237 22.56 167.597 32.7 167.597 43.2C167.597 53.7 167.237 63.87 166.517 73.71C166.217 77.31 165.257 80.01 163.637 81.81C162.077 83.61 160.097 84.51 157.697 84.51ZM130.877 27.36C130.757 25.38 130.637 23.43 130.517 21.51C130.457 19.53 130.337 17.58 130.157 15.66C129.737 11.22 130.307 7.98001 131.867 5.94001C133.487 3.84001 135.647 2.79001 138.347 2.79001C140.747 2.79001 142.727 3.66001 144.287 5.40001C145.847 7.14001 146.777 9.81001 147.077 13.41C147.737 23.07 148.067 33.06 148.067 43.38C148.067 53.7 147.737 63.69 147.077 73.35C146.777 76.95 145.847 79.62 144.287 81.36C142.727 83.1 140.747 83.97 138.347 83.97C135.647 83.97 133.487 82.95 131.867 80.91C130.247 78.87 129.617 75.87 129.977 71.91C130.277 68.31 130.517 64.71 130.697 61.11C130.877 57.51 131.027 53.91 131.147 50.31H128.537C126.797 50.31 125.327 49.62 124.127 48.24C122.987 46.8 122.297 44.55 122.057 41.49C121.397 42.57 120.557 43.47 119.537 44.19C118.577 44.85 117.437 45.21 116.117 45.27C112.097 45.39 108.587 45.9 105.587 46.8C102.647 47.64 100.097 48.63 97.9375 49.77C97.5775 49.95 97.3675 50.22 97.3075 50.58C97.2475 50.88 97.2775 51.21 97.3975 51.57C97.5175 51.87 97.6975 52.11 97.9375 52.29C98.1775 52.47 98.4775 52.47 98.8375 52.29C101.297 51.27 103.787 50.34 106.307 49.5C108.887 48.6 111.647 48.06 114.587 47.88C119.267 47.7 122.747 48.93 125.027 51.57C127.307 54.21 128.627 57.9 128.987 62.64C129.287 66.6 128.837 69.78 127.637 72.18C126.497 74.58 124.847 76.44 122.687 77.76C120.587 79.08 118.097 79.95 115.217 80.37C112.397 80.79 109.457 81 106.397 81C99.0775 81 93.7375 79.77 90.3775 77.31C87.0775 74.85 85.0975 71.37 84.4375 66.87C83.8975 63.09 83.5975 59.34 83.5375 55.62C83.4775 51.84 83.7775 48.33 84.4375 45.09C84.7975 43.35 85.2175 41.76 85.6975 40.32C86.1775 38.88 86.8075 37.65 87.5875 36.63C88.4275 35.55 89.4775 34.71 90.7375 34.11C91.9975 33.51 93.5575 33.18 95.4175 33.12C97.2175 33.06 98.9875 32.94 100.727 32.76C102.467 32.52 104.297 32.25 106.217 31.95C106.517 31.89 106.727 31.71 106.847 31.41C107.027 31.11 107.117 30.78 107.117 30.42C107.117 30.06 107.027 29.76 106.847 29.52C106.727 29.22 106.517 29.1 106.217 29.16C104.477 29.4 102.827 29.64 101.267 29.88C99.7675 30.12 98.1475 30.27 96.4075 30.33C91.8475 30.45 88.6975 29.55 86.9575 27.63C85.2775 25.71 84.4375 22.92 84.4375 19.26C84.4375 12 88.6375 7.47001 97.0375 5.67001C99.1975 5.25001 101.297 5.04001 103.337 5.04001C105.377 4.98001 107.387 5.04 109.367 5.22001C111.047 5.34001 112.637 5.64001 114.137 6.12001C115.637 6.60001 116.987 7.32001 118.187 8.28C119.447 9.18001 120.497 10.35 121.337 11.79C122.237 13.23 122.867 14.97 123.227 17.01C123.947 21.21 124.277 25.38 124.217 29.52C125.297 28.02 126.737 27.27 128.537 27.27L130.877 27.36ZM224.855 42.12C225.575 37.14 225.935 32.13 225.935 27.09C225.935 21.99 225.605 17.1 224.945 12.42C224.705 10.56 224.795 8.97001 225.215 7.65001C225.695 6.33001 226.415 5.25001 227.375 4.41001C228.395 3.51001 229.625 2.85001 231.065 2.43C232.565 2.01001 234.215 1.80001 236.015 1.80001C239.195 1.80001 241.805 2.52001 243.845 3.96001C245.885 5.34001 247.115 7.56001 247.535 10.62C248.375 15.72 248.795 21.15 248.795 26.91C248.795 32.67 248.375 38.1 247.535 43.2C247.115 46.26 245.885 48.48 243.845 49.86C241.805 51.24 239.195 51.93 236.015 51.93C232.355 51.93 229.475 51.15 227.375 49.59C225.275 47.97 224.435 45.48 224.855 42.12ZM172.115 26.73C172.115 23.19 172.505 19.92 173.285 16.92C174.065 13.86 175.415 11.25 177.335 9.09C179.255 6.87 181.835 5.16 185.075 3.96001C188.315 2.70001 192.395 2.07001 197.315 2.07001C202.235 2.07001 206.315 2.70001 209.555 3.96001C212.795 5.16 215.375 6.87 217.295 9.09C219.215 11.25 220.565 13.86 221.345 16.92C222.185 19.92 222.605 23.19 222.605 26.73C222.605 30.21 222.155 33.42 221.255 36.36C220.355 39.3 218.915 41.85 216.935 44.01C214.955 46.11 212.345 47.76 209.105 48.96C205.925 50.16 201.995 50.76 197.315 50.76C192.635 50.76 188.675 50.16 185.435 48.96C182.255 47.76 179.675 46.11 177.695 44.01C175.715 41.85 174.275 39.3 173.375 36.36C172.535 33.42 172.115 30.21 172.115 26.73ZM190.565 24.21C191.885 25.95 193.595 27.45 195.695 28.71C197.795 29.97 199.985 30.87 202.265 31.41C202.805 31.53 203.255 31.47 203.615 31.23C203.975 30.93 204.215 30.6 204.335 30.24C204.515 29.88 204.545 29.52 204.425 29.16C204.365 28.8 204.155 28.56 203.795 28.44C201.635 27.78 199.625 26.88 197.765 25.74C195.905 24.54 194.135 23.13 192.455 21.51C192.155 21.27 191.825 21.21 191.465 21.33C191.165 21.39 190.865 21.57 190.565 21.87C190.325 22.17 190.175 22.53 190.115 22.95C190.055 23.37 190.205 23.79 190.565 24.21ZM174.635 77.49C174.335 76.35 174.095 75 173.915 73.44C173.795 71.88 173.735 70.29 173.735 68.67C173.735 66.99 173.795 65.4 173.915 63.9C174.035 62.4 174.215 61.11 174.455 60.03C174.875 58.11 175.685 56.76 176.885 55.98C178.085 55.2 179.855 54.63 182.195 54.27C186.575 53.67 191.225 53.22 196.145 52.92C201.125 52.62 206.135 52.47 211.175 52.47C216.215 52.47 221.195 52.62 226.115 52.92C231.095 53.22 235.775 53.67 240.155 54.27C242.555 54.63 244.325 55.2 245.465 55.98C246.665 56.76 247.475 58.11 247.895 60.03C248.135 61.11 248.315 62.4 248.435 63.9C248.555 65.4 248.585 66.99 248.525 68.67C248.525 70.29 248.435 71.88 248.255 73.44C248.135 75 247.925 76.35 247.625 77.49C247.145 79.41 246.365 80.79 245.285 81.63C244.265 82.47 242.555 83.01 240.155 83.25C235.715 83.73 231.035 84.06 226.115 84.24C221.195 84.48 216.215 84.6 211.175 84.6C206.135 84.6 201.155 84.48 196.235 84.24C191.315 84.06 186.635 83.73 182.195 83.25C179.855 82.95 178.145 82.38 177.065 81.54C175.985 80.76 175.175 79.41 174.635 77.49ZM203.615 68.31C203.075 69.09 203.465 69.84 204.785 70.56C206.825 71.7 208.955 72.27 211.175 72.27C213.455 72.21 215.645 71.64 217.745 70.56C218.585 70.02 218.885 69.36 218.645 68.58C218.525 68.16 218.255 67.86 217.835 67.68C217.475 67.44 217.085 67.44 216.665 67.68C215.045 68.58 213.185 69.03 211.085 69.03C209.045 68.97 207.215 68.49 205.595 67.59C205.355 67.41 205.025 67.38 204.605 67.5C204.185 67.62 203.855 67.89 203.615 68.31ZM291.605 39.15C288.845 38.73 286.505 38.16 284.585 37.44C282.725 36.72 281.225 35.88 280.085 34.92C278.945 33.9 278.105 32.79 277.565 31.59C277.085 30.39 276.845 29.1 276.845 27.72C276.845 26.16 277.145 24.69 277.745 23.31C278.345 21.93 279.425 20.73 280.985 19.71C279.845 19.05 279.005 18.21 278.465 17.19C277.925 16.11 277.655 14.94 277.655 13.68C277.655 11.94 278.135 10.41 279.095 9.09C280.115 7.71 281.435 6.87 283.055 6.57C284.555 6.39001 286.175 6.57001 287.915 7.11001C289.655 7.65001 291.215 8.34001 292.595 9.18001C290.675 7.86001 289.895 6.45001 290.255 4.95C290.555 3.57 291.605 2.4 293.405 1.44001C295.265 0.480008 298.085 8.82149e-06 301.865 8.82149e-06C305.525 8.82149e-06 308.255 0.480008 310.055 1.44001C311.855 2.4 312.935 3.57 313.295 4.95C313.535 6.45001 312.755 7.86001 310.955 9.18001C312.335 8.34001 313.895 7.65001 315.635 7.11001C317.375 6.57001 319.025 6.39001 320.585 6.57C322.145 6.87 323.435 7.71 324.455 9.09C325.475 10.47 325.985 12.03 325.985 13.77C325.985 16.41 324.815 18.39 322.475 19.71C323.975 20.73 325.025 21.93 325.625 23.31C326.225 24.69 326.525 26.16 326.525 27.72C326.525 29.1 326.285 30.42 325.805 31.68C325.325 32.88 324.485 33.99 323.285 35.01C322.145 35.97 320.615 36.81 318.695 37.53C316.835 38.25 314.525 38.79 311.765 39.15V41.49C312.965 41.43 314.105 41.37 315.185 41.31C316.265 41.25 317.255 41.16 318.155 41.04C320.555 40.8 322.475 41.25 323.915 42.39C325.355 43.47 326.075 44.97 326.075 46.89C326.075 48.99 325.415 50.67 324.095 51.93C322.835 53.19 321.035 53.91 318.695 54.09C316.595 54.27 313.955 54.42 310.775 54.54C307.655 54.66 304.445 54.72 301.145 54.72C297.845 54.72 294.635 54.69 291.515 54.63C288.455 54.51 285.935 54.36 283.955 54.18C281.615 54 279.785 53.28 278.465 52.02C277.205 50.7 276.575 48.99 276.575 46.89C276.575 44.97 277.205 43.47 278.465 42.39C279.785 41.25 281.615 40.83 283.955 41.13C284.975 41.25 286.115 41.34 287.375 41.4C288.695 41.46 290.105 41.52 291.605 41.58V39.15ZM350.825 42.84C350.705 43.44 350.615 44.01 350.555 44.55C350.555 45.09 350.495 45.63 350.375 46.17C349.895 49.53 348.635 51.99 346.595 53.55C344.615 55.05 342.035 55.8 338.855 55.8C335.195 55.8 332.285 54.9 330.125 53.1C328.025 51.3 327.245 48.6 327.785 45C328.145 42.66 328.385 40.11 328.505 37.35C328.685 34.59 328.775 31.8 328.775 28.98C328.775 26.1 328.685 23.34 328.505 20.7C328.385 18 328.175 15.6 327.875 13.5C327.575 11.46 327.635 9.69001 328.055 8.19001C328.475 6.69001 329.165 5.46001 330.125 4.5C331.145 3.54001 332.405 2.85001 333.905 2.43C335.405 1.95001 337.055 1.71001 338.855 1.71001C342.035 1.71001 344.615 2.52001 346.595 4.14001C348.635 5.70001 349.895 8.16001 350.375 11.52C350.495 12.24 350.585 13.02 350.645 13.86C350.765 14.64 350.885 15.45 351.005 16.29L353.705 16.02C355.805 15.78 357.425 16.74 358.565 18.9C359.705 21 360.275 24.54 360.275 29.52C360.275 34.5 359.705 38.07 358.565 40.23C357.425 42.39 355.805 43.35 353.705 43.11L350.825 42.84ZM295.295 24.66C296.675 26.04 298.145 27.24 299.705 28.26C301.325 29.22 303.095 30.03 305.015 30.69C305.375 30.81 305.705 30.78 306.005 30.6C306.365 30.42 306.605 30.18 306.725 29.88C306.905 29.58 306.935 29.28 306.815 28.98C306.755 28.68 306.515 28.44 306.095 28.26C304.355 27.72 302.705 27 301.145 26.1C299.585 25.14 298.145 23.94 296.825 22.5C296.525 22.2 296.225 22.11 295.925 22.23C295.625 22.29 295.355 22.47 295.115 22.77C294.935 23.01 294.845 23.31 294.845 23.67C294.845 24.03 294.995 24.36 295.295 24.66ZM278.195 69.21C278.075 67.77 278.405 66.48 279.185 65.34C279.965 64.14 281.075 63.09 282.515 62.19C284.015 61.29 285.785 60.51 287.825 59.85C289.865 59.19 292.085 58.65 294.485 58.23C297.725 57.69 301.055 57.24 304.475 56.88C307.955 56.52 311.435 56.28 314.915 56.16C318.395 56.04 321.815 56.04 325.175 56.16C328.595 56.28 331.835 56.55 334.895 56.97C339.215 57.63 342.575 58.62 344.975 59.94C347.435 61.2 349.175 62.64 350.195 64.26C350.855 65.34 351.305 66.54 351.545 67.86C351.785 69.12 351.815 70.38 351.635 71.64C351.515 72.9 351.185 74.1 350.645 75.24C350.165 76.38 349.535 77.37 348.755 78.21C346.955 80.25 344.615 81.63 341.735 82.35C338.915 83.13 335.165 83.58 330.485 83.7C325.625 83.82 321.665 83.31 318.605 82.17C315.605 81.09 313.955 79.5 313.655 77.4C313.295 73.62 314.855 70.47 318.335 67.95C318.575 67.83 318.665 67.68 318.605 67.5C318.605 67.26 318.545 67.05 318.425 66.87C318.305 66.69 318.125 66.57 317.885 66.51C317.705 66.45 317.525 66.51 317.345 66.69C315.785 68.25 314.045 69.6 312.125 70.74C310.205 71.82 308.195 72.72 306.095 73.44C303.995 74.16 301.835 74.67 299.615 74.97C297.395 75.33 295.235 75.54 293.135 75.6C290.975 75.6 288.995 75.54 287.195 75.42C285.455 75.3 283.925 75 282.605 74.52C281.285 74.1 280.235 73.47 279.455 72.63C278.735 71.73 278.315 70.59 278.195 69.21ZM416.632 47.97C416.992 45.51 417.262 42.72 417.442 39.6C417.622 36.42 417.712 33.21 417.712 29.97C417.712 26.73 417.622 23.58 417.442 20.52C417.322 17.46 417.082 14.76 416.722 12.42C416.482 10.56 416.572 8.97001 416.992 7.65001C417.472 6.33001 418.192 5.25001 419.152 4.41001C420.172 3.51001 421.402 2.85001 422.842 2.43C424.342 2.01001 425.992 1.80001 427.792 1.80001C430.972 1.80001 433.582 2.52001 435.622 3.96001C437.662 5.34001 438.892 7.56001 439.312 10.62C439.732 13.14 440.032 16.11 440.212 19.53C440.392 22.89 440.482 26.37 440.482 29.97C440.482 33.51 440.392 36.96 440.212 40.32C440.032 43.68 439.732 46.62 439.312 49.14C438.892 52.14 437.662 54.36 435.622 55.8C433.582 57.24 430.972 57.96 427.792 57.96C424.132 57.96 421.252 57.15 419.152 55.53C417.052 53.91 416.212 51.39 416.632 47.97ZM363.892 27.54C363.892 24.06 364.282 20.79 365.062 17.73C365.842 14.61 367.192 11.91 369.112 9.63001C371.032 7.29001 373.612 5.46001 376.852 4.14001C380.092 2.76001 384.172 2.07001 389.092 2.07001C394.012 2.07001 398.092 2.76001 401.332 4.14001C404.572 5.46001 407.152 7.29001 409.072 9.63001C410.992 11.91 412.342 14.61 413.122 17.73C413.962 20.79 414.382 24.06 414.382 27.54C414.382 30.96 413.932 34.2 413.032 37.26C412.132 40.26 410.692 42.9 408.712 45.18C406.732 47.4 404.122 49.17 400.882 50.49C397.702 51.81 393.772 52.47 389.092 52.47C384.412 52.47 380.452 51.81 377.212 50.49C374.032 49.17 371.452 47.4 369.472 45.18C367.492 42.9 366.052 40.26 365.152 37.26C364.312 34.2 363.892 30.96 363.892 27.54ZM382.342 25.02C383.662 26.76 385.372 28.26 387.472 29.52C389.572 30.78 391.762 31.68 394.042 32.22C394.582 32.34 395.032 32.28 395.392 32.04C395.752 31.8 395.992 31.5 396.112 31.14C396.292 30.72 396.322 30.33 396.202 29.97C396.142 29.61 395.932 29.37 395.572 29.25C393.412 28.59 391.402 27.69 389.542 26.55C387.682 25.41 385.912 24 384.232 22.32C383.932 22.08 383.602 22.02 383.242 22.14C382.942 22.2 382.642 22.38 382.342 22.68C382.102 22.98 381.952 23.34 381.892 23.76C381.832 24.18 381.982 24.6 382.342 25.02ZM366.502 68.76C366.502 64.26 367.522 60.78 369.562 58.32C371.602 55.8 374.302 54.3 377.662 53.82C379.462 53.52 381.232 53.46 382.972 53.64C384.772 53.76 386.452 54.12 388.012 54.72C389.572 55.32 390.922 56.16 392.062 57.24C393.262 58.26 394.162 59.49 394.762 60.93C395.122 61.83 395.362 62.91 395.482 64.17C395.662 65.37 395.692 66.57 395.572 67.77C395.452 68.97 395.152 70.11 394.672 71.19C394.192 72.27 393.532 73.11 392.692 73.71C392.392 73.89 392.212 74.13 392.152 74.43C392.092 74.73 392.122 75 392.242 75.24C392.362 75.48 392.542 75.63 392.782 75.69C393.082 75.75 393.382 75.63 393.682 75.33C396.082 73.59 398.572 71.82 401.152 70.02C403.732 68.22 406.432 66.6 409.252 65.16C412.132 63.72 415.102 62.55 418.162 61.65C421.282 60.69 424.522 60.21 427.882 60.21C429.562 60.21 431.152 60.39 432.652 60.75C434.152 61.05 435.502 61.59 436.702 62.37C437.902 63.09 438.892 64.05 439.672 65.25C440.452 66.39 440.962 67.8 441.202 69.48C441.562 73.14 440.692 76.08 438.592 78.3C436.552 80.58 432.892 82.05 427.612 82.71C424.792 83.07 421.642 83.34 418.162 83.52C414.742 83.76 411.112 83.88 407.272 83.88C403.432 83.94 399.412 83.91 395.212 83.79C391.072 83.73 386.872 83.58 382.612 83.34C379.972 83.16 377.632 82.65 375.592 81.81C373.612 80.97 371.932 79.89 370.552 78.57C369.232 77.25 368.212 75.75 367.492 74.07C366.832 72.39 366.502 70.62 366.502 68.76Z" fill="#FFFEF7"/>
</svg>
