<svg width="188" height="71" viewBox="0 0 188 71" fill="none" xmlns="http://www.w3.org/2000/svg">
<path d="M0.480098 51.44C0.640098 49.68 1.01343 48.0267 1.6001 46.48C2.2401 44.9333 3.1201 43.6 4.2401 42.48C5.41343 41.3067 6.85343 40.3733 8.5601 39.68C10.3201 38.9867 12.4268 38.64 14.8801 38.64C16.5868 38.64 18.1868 38.9067 19.6801 39.44C21.2268 39.9733 22.6668 40.6933 24.0001 41.6C25.3334 42.4533 26.5601 43.4667 27.6801 44.64C28.8534 45.8133 29.9734 47.0667 31.0401 48.4C31.2534 48.6667 31.4934 48.8267 31.7601 48.88C32.0801 48.88 32.3468 48.8267 32.5601 48.72C32.7734 48.56 32.9068 48.3467 32.9601 48.08C33.0134 47.8133 32.9334 47.52 32.7201 47.2C31.7068 45.9733 30.8001 44.6933 30.0001 43.36C29.2001 41.9733 28.4801 40.4533 27.8401 38.8C27.2001 37.0933 26.6401 35.2 26.1601 33.12C25.7334 31.04 25.3868 28.6933 25.1201 26.08C24.8534 22.8267 24.7734 19.68 24.8801 16.64C24.9868 13.6 25.4401 10.9067 26.2401 8.56C27.0401 6.21333 28.2668 4.34667 29.9201 2.96C31.6268 1.52 33.9201 0.799996 36.8001 0.799996C40.4801 0.799996 43.2801 1.86666 45.2001 4C47.1734 6.08 48.3468 8.8 48.7201 12.16C49.0934 15.7867 49.3601 19.4933 49.5201 23.28C49.6801 27.0667 49.7601 30.8267 49.7601 34.56C49.7601 38.24 49.6801 41.7867 49.5201 45.2C49.3601 48.6133 49.0934 51.7333 48.7201 54.56C48.2934 57.5467 47.4134 60 46.0801 61.92C44.8001 63.7867 43.1201 65.2533 41.0401 66.32C39.0134 67.44 36.6934 68.2133 34.0801 68.64C31.4668 69.0667 28.6934 69.28 25.7601 69.28C22.2401 69.28 18.8801 68.9867 15.6801 68.4C12.4801 67.8667 9.70676 66.9067 7.3601 65.52C5.01343 64.1333 3.2001 62.32 1.9201 60.08C0.640098 57.7867 0.160098 54.9067 0.480098 51.44ZM54.3213 45.36C54.3213 41.4667 54.9347 37.8933 56.1613 34.64C57.4413 31.3333 59.2013 28.5067 61.4413 26.16C63.7347 23.8133 66.4813 21.9733 69.6813 20.64C72.8813 19.3067 76.4547 18.64 80.4013 18.64C84.4013 18.64 87.868 19.4133 90.8014 20.96C93.7347 22.5067 96.1613 24.5333 98.0813 27.04C100.055 29.5467 101.521 32.4 102.481 35.6C103.441 38.8 103.921 42.0533 103.921 45.36C103.868 48.72 103.255 51.92 102.081 54.96C100.961 58 99.3614 60.6667 97.2813 62.96C95.2547 65.3067 92.7747 67.1467 89.8413 68.48C86.9613 69.8667 83.7347 70.56 80.1613 70.56C76.428 70.56 72.988 69.92 69.8413 68.64C66.6947 67.36 63.9747 65.6 61.6813 63.36C59.388 61.12 57.5747 58.48 56.2413 55.44C54.9613 52.3467 54.3213 48.9867 54.3213 45.36ZM76.7213 49.84C76.5613 50.16 76.5613 50.4533 76.7213 50.72C76.8813 50.9867 77.1213 51.2 77.4413 51.36C77.7613 51.4667 78.108 51.4933 78.4813 51.44C78.908 51.3333 79.2547 51.0933 79.5213 50.72C80.588 49.12 81.308 47.3067 81.6813 45.28C82.0547 43.2533 82.268 41.2267 82.3214 39.2C82.3214 38.72 82.188 38.3733 81.9213 38.16C81.6547 37.9467 81.3347 37.84 80.9613 37.84C80.6413 37.7867 80.3213 37.8667 80.0013 38.08C79.7347 38.24 79.6013 38.48 79.6013 38.8C79.4413 40.7733 79.148 42.64 78.7213 44.4C78.348 46.1067 77.6813 47.92 76.7213 49.84ZM119.941 22.24C118.555 22.24 117.221 22 115.941 21.52C114.715 21.04 113.621 20.32 112.661 19.36C111.701 18.4 110.928 17.2267 110.341 15.84C109.755 14.4533 109.461 12.88 109.461 11.12C109.461 9.46666 109.755 7.97333 110.341 6.64C110.928 5.25333 111.701 4.08 112.661 3.12C113.675 2.10666 114.795 1.33333 116.021 0.799996C117.301 0.266664 118.608 -2.86102e-06 119.941 -2.86102e-06C121.381 -2.86102e-06 122.741 0.319998 124.021 0.959999C125.301 1.6 126.421 2.45333 127.381 3.52C128.341 4.58667 129.088 5.81333 129.621 7.2C130.155 8.53333 130.421 9.92 130.421 11.36C130.421 12.8533 130.155 14.2667 129.621 15.6C129.088 16.88 128.368 18.0267 127.461 19.04C126.555 20 125.435 20.7733 124.101 21.36C122.821 21.9467 121.435 22.24 119.941 22.24ZM109.221 62.48C108.475 57.7333 108.101 52.8533 108.101 47.84C108.101 42.7733 108.475 37.8667 109.221 33.12C109.488 31.2533 110.475 29.68 112.181 28.4C113.941 27.0667 116.528 26.4 119.941 26.4C123.248 26.4 125.728 27.0667 127.381 28.4C129.088 29.68 130.101 31.2533 130.421 33.12C131.221 37.8667 131.621 42.7733 131.621 47.84C131.621 52.8533 131.221 57.7333 130.421 62.48C130.101 64.3467 129.088 65.92 127.381 67.2C125.728 68.5333 123.248 69.2 119.941 69.2C116.528 69.2 113.941 68.5333 112.181 67.2C110.475 65.92 109.488 64.3467 109.221 62.48ZM159.808 54.4C159.701 55.2533 159.621 56.08 159.568 56.88C159.568 57.68 159.514 58.48 159.408 59.28C159.088 62.32 158.074 64.72 156.368 66.48C154.714 68.2933 152.208 69.2 148.848 69.2C145.434 69.2 142.821 68.2933 141.008 66.48C139.248 64.72 138.208 62.32 137.888 59.28C137.621 56.6133 137.408 53.84 137.248 50.96C137.141 48.0267 137.034 45.2267 136.928 42.56V28.24C136.928 25.36 137.808 23.04 139.568 21.28C141.328 19.52 143.648 18.64 146.528 18.64C148.821 18.64 150.981 19.0133 153.008 19.76C155.088 20.4533 156.554 21.7067 157.408 23.52C155.328 26.08 153.781 28.8 152.768 31.68C151.808 34.5067 151.488 37.4933 151.808 40.64C151.861 41.12 152.021 41.4933 152.288 41.76C152.554 41.9733 152.821 42.08 153.088 42.08C153.354 42.08 153.594 41.9733 153.808 41.76C154.021 41.5467 154.128 41.2267 154.128 40.8C153.968 38.7733 154.101 36.7467 154.528 34.72C154.954 32.6933 155.594 30.8 156.448 29.04C157.301 27.2267 158.314 25.6267 159.488 24.24C160.661 22.8533 161.888 21.76 163.168 20.96C164.341 20.2667 165.541 19.7067 166.768 19.28C168.048 18.8533 169.354 18.64 170.688 18.64C172.928 18.64 175.088 19.0133 177.168 19.76C179.301 20.5067 181.114 21.7067 182.608 23.36C183.728 24.5867 184.608 25.8667 185.248 27.2C185.888 28.5333 186.368 29.92 186.688 31.36C187.008 32.8 187.194 34.2933 187.248 35.84C187.301 37.3333 187.328 38.88 187.328 40.48C187.274 43.52 187.088 46.72 186.768 50.08C186.501 53.3867 186.048 56.4533 185.408 59.28C185.088 60.7733 184.634 62.1333 184.048 63.36C183.461 64.5867 182.714 65.6267 181.808 66.48C180.901 67.3333 179.808 68 178.528 68.48C177.301 68.96 175.808 69.2 174.048 69.2C170.528 69.2 167.834 68.2933 165.968 66.48C164.154 64.72 163.061 62.32 162.688 59.28C162.581 58.5867 162.501 57.8933 162.448 57.2C162.394 56.5067 162.341 55.7867 162.288 55.04C162.288 54.56 162.181 54.1867 161.968 53.92C161.754 53.6 161.514 53.4133 161.248 53.36C160.981 53.3067 160.714 53.3867 160.448 53.6C160.181 53.76 159.968 54.0267 159.808 54.4Z" fill="#FFFEF7"/>
</svg>
