<svg width="240" height="86" viewBox="0 0 240 86" fill="none" xmlns="http://www.w3.org/2000/svg">
<path d="M1.12001 54.56C0.746672 51.7333 0.453339 48.6133 0.240005 45.2C0.080005 41.7867 4.94719e-06 38.24 4.94719e-06 34.56C4.94719e-06 30.8267 0.080005 27.0667 0.240005 23.28C0.453339 19.4933 0.746672 15.7867 1.12001 12.16C1.44001 8.8 2.56001 6.08 4.48001 4C6.45334 1.86666 9.28 0.799996 12.96 0.799996C15.84 0.799996 18.1067 1.52 19.76 2.96C21.4667 4.34667 22.72 6.21333 23.52 8.56C24.32 10.9067 24.7733 13.6 24.88 16.64C24.9867 19.68 24.9067 22.8267 24.64 26.08C24.4267 28.6933 24.08 31.04 23.6 33.12C23.1733 35.2 22.64 37.0933 22 38.8C21.36 40.4533 20.6133 41.9733 19.76 43.36C18.96 44.6933 18.08 45.9733 17.12 47.2C16.9067 47.52 16.8267 47.8133 16.88 48.08C16.9333 48.3467 17.04 48.56 17.2 48.72C17.4133 48.8267 17.6533 48.88 17.92 48.88C18.1867 48.8267 18.4533 48.6667 18.72 48.4C19.7333 47.0667 20.8267 45.8133 22 44.64C23.1733 43.4667 24.4267 42.4533 25.76 41.6C27.0933 40.6933 28.5067 39.9733 30 39.44C31.5467 38.9067 33.2 38.64 34.96 38.64C37.36 38.64 39.4133 38.9867 41.12 39.68C42.88 40.3733 44.32 41.3067 45.44 42.48C46.6133 43.6 47.4933 44.9333 48.08 46.48C48.72 48.0267 49.12 49.68 49.28 51.44C49.6 54.9067 49.12 57.7867 47.84 60.08C46.56 62.32 44.7467 64.1333 42.4 65.52C40.0533 66.9067 37.28 67.8667 34.08 68.4C30.88 68.9867 27.52 69.28 24 69.28C21.0667 69.28 18.2933 69.0667 15.68 68.64C13.0667 68.2133 10.7467 67.44 8.72001 66.32C6.69334 65.2533 5.01334 63.7867 3.68 61.92C2.34667 60 1.49334 57.5467 1.12001 54.56ZM51.6013 45.36C51.6013 41.4667 52.2146 37.8933 53.4413 34.64C54.7213 31.3333 56.4813 28.5067 58.7213 26.16C61.0146 23.8133 63.7613 21.9733 66.9613 20.64C70.1613 19.3067 73.7346 18.64 77.6813 18.64C81.6813 18.64 85.1479 19.4133 88.0813 20.96C91.0146 22.5067 93.4413 24.5333 95.3613 27.04C97.3346 29.5467 98.8013 32.4 99.7613 35.6C100.721 38.8 101.201 42.0533 101.201 45.36C101.148 48.72 100.535 51.92 99.3613 54.96C98.2413 58 96.6413 60.6667 94.5613 62.96C92.5346 65.3067 90.0546 67.1467 87.1213 68.48C84.2413 69.8667 81.0146 70.56 77.4413 70.56C73.7079 70.56 70.2679 69.92 67.1213 68.64C63.9746 67.36 61.2546 65.6 58.9613 63.36C56.6679 61.12 54.8546 58.48 53.5213 55.44C52.2413 52.3467 51.6013 48.9867 51.6013 45.36ZM74.0013 49.84C73.8413 50.16 73.8413 50.4533 74.0013 50.72C74.1613 50.9867 74.4013 51.2 74.7213 51.36C75.0413 51.4667 75.3879 51.4933 75.7613 51.44C76.1879 51.3333 76.5346 51.0933 76.8013 50.72C77.8679 49.12 78.5879 47.3067 78.9613 45.28C79.3346 43.2533 79.5479 41.2267 79.6013 39.2C79.6013 38.72 79.4679 38.3733 79.2013 38.16C78.9346 37.9467 78.6146 37.84 78.2413 37.84C77.9213 37.7867 77.6013 37.8667 77.2813 38.08C77.0146 38.24 76.8813 38.48 76.8813 38.8C76.7213 40.7733 76.4279 42.64 76.0013 44.4C75.6279 46.1067 74.9613 47.92 74.0013 49.84ZM143.141 14.8C144.795 13.2533 146.555 12.6133 148.421 12.88C150.341 13.1467 152.048 14.16 153.541 15.92C154.928 17.6267 155.621 19.4133 155.621 21.28C155.621 23.0933 154.875 24.8267 153.381 26.48L152.501 27.52C152.501 27.7867 152.581 28.08 152.741 28.4C152.901 28.6667 153.088 29.0933 153.301 29.68C153.568 30.2667 153.781 31.04 153.941 32C154.155 32.96 154.261 34.2133 154.261 35.76C154.261 37.6267 154.075 39.4667 153.701 41.28C153.381 43.0933 152.821 44.8 152.021 46.4C151.275 48 150.288 49.4933 149.061 50.88C147.835 52.2133 146.341 53.3067 144.581 54.16C142.768 53.4133 140.795 52.8267 138.661 52.4C136.528 51.92 134.155 51.6533 131.541 51.6C131.061 51.6 130.688 51.7333 130.421 52C130.155 52.2133 129.995 52.4533 129.941 52.72C129.941 52.9867 130.048 53.2533 130.261 53.52C130.528 53.7333 130.901 53.84 131.381 53.84C135.488 54.0533 139.035 54.7467 142.021 55.92C145.008 57.04 147.408 58.4533 149.221 60.16C151.088 61.8667 152.368 63.76 153.061 65.84C153.755 67.92 153.888 70 153.461 72.08C153.088 73.84 152.288 75.52 151.061 77.12C149.835 78.7733 148.181 80.2133 146.101 81.44C144.021 82.72 141.515 83.7333 138.581 84.48C135.648 85.2267 132.315 85.6 128.581 85.6C124.581 85.6 121.141 85.1733 118.261 84.32C115.381 83.52 112.955 82.4267 110.981 81.04C109.008 79.7067 107.488 78.1333 106.421 76.32C105.355 74.56 104.661 72.6933 104.341 70.72C104.075 69.0133 104.075 67.28 104.341 65.52C104.608 63.8133 105.088 62.1333 105.781 60.48C106.475 58.8267 107.381 57.28 108.501 55.84C109.621 54.4 110.901 53.12 112.341 52C110.901 51.1467 109.675 50.08 108.661 48.8C107.701 47.4667 106.928 46 106.341 44.4C105.808 42.8 105.488 41.12 105.381 39.36C105.275 37.6 105.435 35.84 105.861 34.08C106.341 32 107.168 29.9733 108.341 28C109.568 26.0267 111.195 24.2933 113.221 22.8C115.248 21.2533 117.701 20.0267 120.581 19.12C123.461 18.2133 126.795 17.76 130.581 17.76C131.915 17.76 133.221 17.84 134.501 18C135.781 18.16 137.275 18.3733 138.981 18.64L143.141 14.8ZM128.101 39.36C127.941 39.68 127.941 39.9733 128.101 40.24C128.261 40.5067 128.501 40.6933 128.821 40.8C129.141 40.9067 129.488 40.9333 129.861 40.88C130.235 40.8267 130.555 40.6133 130.821 40.24C131.941 38.6933 132.635 36.9067 132.901 34.88C133.221 32.8533 133.435 30.8533 133.541 28.88C133.541 28.4 133.408 28.0533 133.141 27.84C132.875 27.5733 132.581 27.44 132.261 27.44C131.941 27.3867 131.621 27.4667 131.301 27.68C131.035 27.84 130.901 28.08 130.901 28.4C130.795 30.32 130.528 32.16 130.101 33.92C129.675 35.68 129.008 37.4933 128.101 39.36ZM127.461 74.08C127.301 74.4 127.301 74.6933 127.461 74.96C127.675 75.2267 127.915 75.4133 128.181 75.52C128.501 75.68 128.821 75.7067 129.141 75.6C129.515 75.5467 129.835 75.3333 130.101 74.96C131.168 73.4133 131.861 71.6267 132.181 69.6C132.555 67.5733 132.795 65.6 132.901 63.68C132.901 63.2 132.768 62.8533 132.501 62.64C132.235 62.4267 131.915 62.2933 131.541 62.24C131.221 62.1867 130.901 62.24 130.581 62.4C130.315 62.6133 130.181 62.88 130.181 63.2C130.075 65.12 129.835 66.9333 129.461 68.64C129.088 70.4 128.421 72.2133 127.461 74.08ZM171.674 22.24C170.288 22.24 168.954 22 167.674 21.52C166.448 21.04 165.354 20.32 164.394 19.36C163.434 18.4 162.661 17.2267 162.074 15.84C161.488 14.4533 161.194 12.88 161.194 11.12C161.194 9.46666 161.488 7.97333 162.074 6.64C162.661 5.25333 163.434 4.08 164.394 3.12C165.408 2.10666 166.528 1.33333 167.754 0.799996C169.034 0.266664 170.341 -2.86102e-06 171.674 -2.86102e-06C173.114 -2.86102e-06 174.474 0.319998 175.754 0.959999C177.034 1.6 178.154 2.45333 179.114 3.52C180.074 4.58667 180.821 5.81333 181.354 7.2C181.888 8.53333 182.154 9.92 182.154 11.36C182.154 12.8533 181.888 14.2667 181.354 15.6C180.821 16.88 180.101 18.0267 179.194 19.04C178.288 20 177.168 20.7733 175.834 21.36C174.554 21.9467 173.168 22.24 171.674 22.24ZM160.954 62.48C160.208 57.7333 159.834 52.8533 159.834 47.84C159.834 42.7733 160.208 37.8667 160.954 33.12C161.221 31.2533 162.208 29.68 163.914 28.4C165.674 27.0667 168.261 26.4 171.674 26.4C174.981 26.4 177.461 27.0667 179.114 28.4C180.821 29.68 181.834 31.2533 182.154 33.12C182.954 37.8667 183.354 42.7733 183.354 47.84C183.354 52.8533 182.954 57.7333 182.154 62.48C181.834 64.3467 180.821 65.92 179.114 67.2C177.461 68.5333 174.981 69.2 171.674 69.2C168.261 69.2 165.674 68.5333 163.914 67.2C162.208 65.92 161.221 64.3467 160.954 62.48ZM211.541 54.4C211.434 55.2533 211.354 56.08 211.301 56.88C211.301 57.68 211.247 58.48 211.141 59.28C210.821 62.32 209.807 64.72 208.101 66.48C206.447 68.2933 203.941 69.2 200.581 69.2C197.167 69.2 194.554 68.2933 192.741 66.48C190.981 64.72 189.941 62.32 189.621 59.28C189.354 56.6133 189.141 53.84 188.981 50.96C188.874 48.0267 188.767 45.2267 188.661 42.56V28.24C188.661 25.36 189.541 23.04 191.301 21.28C193.061 19.52 195.381 18.64 198.261 18.64C200.554 18.64 202.714 19.0133 204.741 19.76C206.821 20.4533 208.287 21.7067 209.141 23.52C207.061 26.08 205.514 28.8 204.501 31.68C203.541 34.5067 203.221 37.4933 203.541 40.64C203.594 41.12 203.754 41.4933 204.021 41.76C204.287 41.9733 204.554 42.08 204.821 42.08C205.087 42.08 205.327 41.9733 205.541 41.76C205.754 41.5467 205.861 41.2267 205.861 40.8C205.701 38.7733 205.834 36.7467 206.261 34.72C206.687 32.6933 207.327 30.8 208.181 29.04C209.034 27.2267 210.047 25.6267 211.221 24.24C212.394 22.8533 213.621 21.76 214.901 20.96C216.074 20.2667 217.274 19.7067 218.501 19.28C219.781 18.8533 221.087 18.64 222.421 18.64C224.661 18.64 226.821 19.0133 228.901 19.76C231.034 20.5067 232.847 21.7067 234.341 23.36C235.461 24.5867 236.341 25.8667 236.981 27.2C237.621 28.5333 238.101 29.92 238.421 31.36C238.741 32.8 238.927 34.2933 238.981 35.84C239.034 37.3333 239.061 38.88 239.061 40.48C239.007 43.52 238.821 46.72 238.501 50.08C238.234 53.3867 237.781 56.4533 237.141 59.28C236.821 60.7733 236.367 62.1333 235.781 63.36C235.194 64.5867 234.447 65.6267 233.541 66.48C232.634 67.3333 231.541 68 230.261 68.48C229.034 68.96 227.541 69.2 225.781 69.2C222.261 69.2 219.567 68.2933 217.701 66.48C215.887 64.72 214.794 62.32 214.421 59.28C214.314 58.5867 214.234 57.8933 214.181 57.2C214.127 56.5067 214.074 55.7867 214.021 55.04C214.021 54.56 213.914 54.1867 213.701 53.92C213.487 53.6 213.247 53.4133 212.981 53.36C212.714 53.3067 212.447 53.3867 212.181 53.6C211.914 53.76 211.701 54.0267 211.541 54.4Z" fill="#3C4FD0"/>
</svg>
