<svg width="338" height="92" viewBox="0 0 338 92" fill="none" xmlns="http://www.w3.org/2000/svg">
<path d="M23.6 42.72C23.4933 45.3866 23.3333 47.8933 23.12 50.24C22.9066 52.5333 22.6666 55.0133 22.4 57.68C22.24 59.1733 21.92 60.56 21.44 61.84C20.96 63.1733 20.2666 64.32 19.36 65.28C18.5066 66.24 17.44 66.9866 16.16 67.52C14.9333 68.1066 13.4933 68.4 11.84 68.4C10.1333 68.4 8.63996 68.1066 7.35996 67.52C6.13329 66.9866 5.06663 66.24 4.15996 65.28C3.30663 64.32 2.63996 63.1733 2.15996 61.84C1.67996 60.56 1.35996 59.1733 1.19996 57.68C0.399961 50.0533 -3.88622e-05 42.2133 -3.88622e-05 34.1599C-3.88622e-05 26.1066 0.399961 18.2666 1.19996 10.6399C1.35996 9.14662 1.67996 7.75995 2.15996 6.47995C2.63996 5.19995 3.30663 4.07995 4.15996 3.11995C5.06663 2.15995 6.13329 1.41328 7.35996 0.879951C8.63996 0.293282 10.1333 -5.24521e-05 11.84 -5.24521e-05C13.76 -5.24521e-05 15.3866 0.346615 16.72 1.03995C18.1066 1.73328 19.2533 2.69328 20.16 3.91995C21.3333 5.57328 22.48 7.41328 23.6 9.43995C24.7733 11.4666 25.8933 13.5733 26.96 15.7599C28.08 17.8933 29.1466 20.08 30.16 22.3199C31.1733 24.5599 32.16 26.7199 33.12 28.7999C33.3866 29.3333 33.7066 29.6 34.08 29.6C34.4533 29.6 34.7733 29.3333 35.04 28.7999C36 26.7199 36.9866 24.5599 38 22.3199C39.0133 20.08 40.0533 17.8933 41.12 15.7599C42.24 13.5733 43.36 11.4666 44.48 9.43995C45.6533 7.41328 46.8266 5.57328 48 3.91995C48.8533 2.69328 49.9733 1.73328 51.36 1.03995C52.7466 0.346615 54.4 -5.24521e-05 56.32 -5.24521e-05C58.0266 -5.24521e-05 59.4933 0.293282 60.72 0.879951C62 1.41328 63.0666 2.15995 63.92 3.11995C64.8266 4.07995 65.52 5.19995 66 6.47995C66.48 7.75995 66.8 9.14662 66.96 10.6399C67.7066 18.2666 68.08 26.1066 68.08 34.1599C68.08 42.2133 67.7066 50.0533 66.96 57.68C66.8 59.1733 66.48 60.56 66 61.84C65.52 63.1733 64.8266 64.32 63.92 65.28C63.0666 66.24 62 66.9866 60.72 67.52C59.4933 68.1066 58.0266 68.4 56.32 68.4C54.6666 68.4 53.2 68.1066 51.92 67.52C50.6933 66.9866 49.6266 66.24 48.72 65.28C47.8666 64.32 47.2 63.1733 46.72 61.84C46.24 60.56 45.92 59.1733 45.76 57.68C45.4933 55.0133 45.2533 52.5333 45.04 50.24C44.8266 47.8933 44.6666 45.3866 44.56 42.72C45.4666 40.7999 46.24 39.0666 46.88 37.52C47.52 35.92 48.08 34.2133 48.56 32.4C48.6666 31.9199 48.64 31.5466 48.48 31.28C48.3733 31.0133 48.1866 30.8533 47.92 30.7999C47.7066 30.6933 47.4666 30.7199 47.2 30.88C46.9866 31.04 46.8266 31.3066 46.72 31.6799C45.8133 34.5599 44.64 37.5199 43.2 40.5599C41.8133 43.6 40.4266 46.4 39.04 48.96C38.4533 49.9733 37.7066 50.7466 36.8 51.28C35.9466 51.76 35.04 52 34.08 52C33.12 52 32.1866 51.76 31.28 51.28C30.3733 50.7466 29.6533 49.9733 29.12 48.96C27.7333 46.4 26.32 43.6 24.88 40.5599C23.4933 37.5199 22.3466 34.5599 21.44 31.6799C21.3333 31.3066 21.1466 31.04 20.88 30.88C20.6666 30.7199 20.4266 30.6933 20.16 30.7999C19.9466 30.8533 19.76 31.0133 19.6 31.28C19.4933 31.5466 19.4933 31.9199 19.6 32.4C20.08 34.2133 20.64 35.92 21.28 37.52C21.92 39.0666 22.6933 40.7999 23.6 42.72ZM105.659 54.8C105.872 54.32 105.925 53.9466 105.819 53.68C105.712 53.36 105.525 53.1466 105.259 53.04C105.045 52.9333 104.779 52.9333 104.459 53.04C104.192 53.1466 103.979 53.36 103.819 53.68C102.272 56.1866 100.512 58.08 98.5387 59.36C96.6187 60.5866 94.192 61.2 91.2587 61.2C88.8587 61.2 86.4854 60.7733 84.1387 59.92C81.792 59.0133 79.712 57.7333 77.8987 56.08C76.1387 54.4266 74.752 52.4 73.7387 50C72.7787 47.5466 72.4587 44.7466 72.7787 41.6L74.6187 25.7599C74.8854 23.3599 75.8187 21.4399 77.4187 19.9999C79.072 18.5599 81.0987 17.8399 83.4987 17.8399H88.7787C91.1787 17.8399 92.9387 18.5599 94.0587 19.9999C95.1787 21.3866 95.4987 23.2533 95.0187 25.5999L91.4987 42.4C91.392 42.7733 91.4187 43.1199 91.5787 43.4399C91.7387 43.7066 91.952 43.8933 92.2187 44C92.5387 44.0533 92.8587 44 93.1787 43.84C93.4987 43.68 93.7387 43.3599 93.8987 42.8799L97.8187 25.5999C98.352 23.2533 99.5254 21.3866 101.339 19.9999C103.205 18.5599 105.339 17.8399 107.739 17.8399H112.699C115.579 17.8399 117.899 18.7199 119.659 20.48C121.472 22.24 122.379 24.56 122.379 27.4399L122.459 49.92C122.512 59.9466 120.272 68.2666 115.739 74.88C114.512 76.5866 113.099 78.0533 111.499 79.28C109.952 80.56 108.245 81.6 106.379 82.4C104.565 83.2 102.645 83.7866 100.619 84.16C98.592 84.5866 96.5387 84.8 94.4587 84.8C93.8187 84.8 92.9654 84.7466 91.8987 84.64C90.832 84.5866 89.6587 84.4533 88.3787 84.24C87.0987 84.08 85.792 83.8666 84.4587 83.6C83.1787 83.3333 82.032 83.0133 81.0187 82.64C79.5787 82.1066 78.4587 81.3866 77.6587 80.48C76.8587 79.5733 76.2987 78.5333 75.9787 77.36C75.712 76.24 75.632 75.04 75.7387 73.76C75.8454 72.5333 76.112 71.3333 76.5387 70.16C76.912 69.0933 77.3654 68.08 77.8987 67.12C78.432 66.16 79.072 65.3333 79.8187 64.64C80.5654 63.9466 81.4454 63.4133 82.4587 63.04C83.472 62.72 84.6187 62.64 85.8987 62.8C86.6454 62.9066 87.632 62.9866 88.8587 63.04C90.1387 63.1466 91.2587 63.2 92.2187 63.2C95.5787 63.2 98.272 62.4266 100.299 60.88C102.379 59.3333 104.165 57.3066 105.659 54.8ZM150.843 71.04C150.843 71.68 150.816 72.4266 150.763 73.28C150.71 74.1333 150.63 74.9866 150.523 75.84C150.47 76.7466 150.39 77.6 150.283 78.4C150.23 79.2 150.176 79.8933 150.123 80.48C149.963 81.92 149.643 83.28 149.163 84.56C148.683 85.84 148.016 86.96 147.163 87.92C146.31 88.88 145.243 89.6266 143.963 90.16C142.683 90.7466 141.216 91.04 139.563 91.04C137.856 91.04 136.363 90.7466 135.083 90.16C133.856 89.6266 132.816 88.88 131.963 87.92C131.11 86.96 130.443 85.84 129.963 84.56C129.483 83.28 129.163 81.92 129.003 80.48C128.523 75.68 128.203 70.9333 128.043 66.24C127.883 61.5466 127.803 56.8266 127.803 52.08V24.6399C127.803 23.6266 128.07 22.7199 128.603 21.9199C129.19 21.0666 129.936 20.3733 130.843 19.8399C131.75 19.2533 132.763 18.8266 133.883 18.5599C135.003 18.2399 136.15 18.0799 137.323 18.0799C138.283 18.0799 139.243 18.1866 140.203 18.3999C141.216 18.6133 142.176 18.9866 143.083 19.5199C145.536 19.0399 147.776 18.6666 149.803 18.3999C151.883 18.1333 153.75 17.9999 155.403 17.9999C160.043 17.9999 164.123 18.7999 167.643 20.3999C171.216 21.9999 174.123 24.1599 176.363 26.8799C178.656 29.5999 180.23 32.7733 181.083 36.4C181.99 39.9733 182.123 43.76 181.483 47.76C180.896 51.28 179.776 54.4 178.123 57.12C176.47 59.7866 174.496 62.0266 172.203 63.84C169.91 65.7066 167.376 67.0933 164.603 68C161.883 68.96 159.136 69.44 156.363 69.44C153.003 69.44 149.75 68.7733 146.603 67.44C143.456 66.1066 140.816 63.9466 138.683 60.96C138.416 60.64 138.123 60.48 137.803 60.48C137.536 60.4266 137.296 60.5066 137.083 60.72C136.87 60.88 136.736 61.12 136.683 61.44C136.683 61.76 136.816 62.1066 137.083 62.48C138.043 63.7066 139.003 64.7733 139.963 65.68C140.923 66.64 141.936 67.4666 143.003 68.16C144.123 68.8533 145.323 69.44 146.603 69.92C147.883 70.4 149.296 70.7733 150.843 71.04ZM152.043 47.6799C154.07 47.2533 156.016 46.6933 157.883 46C159.75 45.3066 161.456 44.3466 163.003 43.12C163.376 42.8533 163.563 42.5333 163.563 42.16C163.563 41.7866 163.456 41.4666 163.243 41.2C163.083 40.88 162.843 40.6666 162.523 40.5599C162.256 40.4 162.016 40.4 161.803 40.5599C160.043 41.7866 158.31 42.72 156.603 43.36C154.95 44 153.136 44.5066 151.163 44.88C150.843 44.9866 150.63 45.2 150.523 45.52C150.416 45.84 150.39 46.1866 150.443 46.56C150.55 46.88 150.736 47.1733 151.003 47.44C151.27 47.7066 151.616 47.7866 152.043 47.6799ZM216.486 62.48C214.673 65.2 212.433 67.0933 209.766 68.16C207.153 69.2266 204.273 69.76 201.126 69.76C198.833 69.76 196.7 69.4666 194.726 68.88C192.753 68.2933 191.02 67.4133 189.526 66.24C188.086 65.12 186.94 63.7066 186.086 62C185.233 60.2933 184.806 58.3466 184.806 56.16C184.806 54.1866 185.153 52.4 185.846 50.8C186.593 49.1466 187.606 47.7066 188.886 46.4799C190.166 45.2 191.686 44.16 193.446 43.36C195.206 42.56 197.1 41.9466 199.126 41.52C202.86 40.7733 206.006 39.6266 208.566 38.08C211.126 36.48 213.073 34.6666 214.406 32.6399C214.673 32.2666 214.753 31.8933 214.646 31.5199C214.54 31.1466 214.326 30.8533 214.006 30.6399C213.74 30.4266 213.42 30.3466 213.046 30.3999C212.673 30.3999 212.353 30.5866 212.086 30.9599C211.286 32.0799 210.3 33.1466 209.126 34.1599C208.006 35.1199 206.753 35.9466 205.366 36.64C203.98 37.3333 202.46 37.8933 200.806 38.32C199.206 38.6933 197.553 38.88 195.846 38.88C192.7 38.88 190.326 38.1599 188.726 36.7199C187.126 35.2266 186.326 33.3599 186.326 31.1199C186.326 29.0933 186.94 27.2799 188.166 25.6799C189.393 24.0266 191.046 22.6133 193.126 21.44C195.206 20.2666 197.633 19.3866 200.406 18.7999C203.18 18.1599 206.113 17.8399 209.206 17.8399C215.606 17.8399 220.673 18.9599 224.406 21.2C228.14 23.4399 230.833 26.9066 232.486 31.6C233.18 33.5733 233.686 35.8133 234.006 38.32C234.38 40.7733 234.566 43.3333 234.566 46C234.62 48.6666 234.486 51.36 234.166 54.08C233.9 56.8 233.5 59.3866 232.966 61.84C231.9 66.64 229.126 69.04 224.646 69.04C220.166 69.04 217.446 66.8533 216.486 62.48ZM202.886 56.8C204.806 56.5333 206.646 55.8666 208.406 54.8C210.166 53.68 211.793 52.5066 213.286 51.28C213.66 50.96 213.846 50.6133 213.846 50.24C213.846 49.8666 213.74 49.5466 213.526 49.28C213.313 49.0133 213.046 48.8266 212.726 48.72C212.406 48.6133 212.113 48.6666 211.846 48.88C210.3 50.16 208.753 51.2266 207.206 52.08C205.66 52.9333 203.82 53.6266 201.686 54.16C201.366 54.2666 201.153 54.48 201.046 54.8C200.993 55.0666 201.02 55.36 201.126 55.68C201.233 56 201.42 56.2933 201.686 56.56C202.006 56.7733 202.406 56.8533 202.886 56.8ZM276.581 13.9999C278.234 12.4533 279.994 11.8133 281.861 12.0799C283.781 12.3466 285.487 13.3599 286.981 15.1199C288.367 16.8266 289.061 18.6133 289.061 20.48C289.061 22.2933 288.314 24.0266 286.821 25.6799L285.941 26.7199C285.941 26.9866 286.021 27.2799 286.181 27.5999C286.341 27.8666 286.527 28.2933 286.741 28.88C287.007 29.4666 287.221 30.24 287.381 31.1999C287.594 32.1599 287.701 33.4133 287.701 34.96C287.701 36.8266 287.514 38.6666 287.141 40.48C286.821 42.2933 286.261 44 285.461 45.6C284.714 47.2 283.727 48.6933 282.501 50.08C281.274 51.4133 279.781 52.5066 278.021 53.36C276.207 52.6133 274.234 52.0266 272.101 51.6C269.967 51.12 267.594 50.8533 264.981 50.8C264.501 50.8 264.127 50.9333 263.861 51.2C263.594 51.4133 263.434 51.6533 263.381 51.92C263.381 52.1866 263.487 52.4533 263.701 52.72C263.967 52.9333 264.341 53.04 264.821 53.04C268.927 53.2533 272.474 53.9466 275.461 55.12C278.447 56.24 280.847 57.6533 282.661 59.36C284.527 61.0666 285.807 62.96 286.501 65.04C287.194 67.12 287.327 69.2 286.901 71.28C286.527 73.04 285.727 74.72 284.501 76.32C283.274 77.9733 281.621 79.4133 279.541 80.64C277.461 81.92 274.954 82.9333 272.021 83.68C269.087 84.4266 265.754 84.8 262.021 84.8C258.021 84.8 254.581 84.3733 251.701 83.52C248.821 82.72 246.394 81.6266 244.421 80.24C242.447 78.9066 240.927 77.3333 239.861 75.52C238.794 73.76 238.101 71.8933 237.781 69.92C237.514 68.2133 237.514 66.48 237.781 64.72C238.047 63.0133 238.527 61.3333 239.221 59.68C239.914 58.0266 240.821 56.48 241.941 55.04C243.061 53.6 244.341 52.32 245.781 51.2C244.341 50.3466 243.114 49.28 242.101 48C241.141 46.6666 240.367 45.2 239.781 43.6C239.247 42 238.927 40.32 238.821 38.5599C238.714 36.7999 238.874 35.04 239.301 33.28C239.781 31.2 240.607 29.1733 241.781 27.2C243.007 25.2266 244.634 23.4933 246.661 22C248.687 20.4533 251.141 19.2266 254.021 18.32C256.901 17.4133 260.234 16.9599 264.021 16.9599C265.354 16.9599 266.661 17.0399 267.941 17.2C269.221 17.3599 270.714 17.5733 272.421 17.8399L276.581 13.9999ZM261.541 38.5599C261.381 38.88 261.381 39.1733 261.541 39.4399C261.701 39.7066 261.941 39.8933 262.261 39.9999C262.581 40.1066 262.927 40.1333 263.301 40.08C263.674 40.0266 263.994 39.8133 264.261 39.4399C265.381 37.8933 266.074 36.1066 266.341 34.0799C266.661 32.0533 266.874 30.0533 266.981 28.0799C266.981 27.5999 266.847 27.2533 266.581 27.0399C266.314 26.7733 266.021 26.64 265.701 26.64C265.381 26.5866 265.061 26.6666 264.741 26.8799C264.474 27.0399 264.341 27.2799 264.341 27.5999C264.234 29.52 263.967 31.36 263.541 33.12C263.114 34.8799 262.447 36.6933 261.541 38.5599ZM260.901 73.28C260.741 73.6 260.741 73.8933 260.901 74.16C261.114 74.4266 261.354 74.6133 261.621 74.72C261.941 74.88 262.261 74.9066 262.581 74.8C262.954 74.7466 263.274 74.5333 263.541 74.16C264.607 72.6133 265.301 70.8266 265.621 68.8C265.994 66.7733 266.234 64.8 266.341 62.88C266.341 62.4 266.207 62.0533 265.941 61.84C265.674 61.6266 265.354 61.4933 264.981 61.44C264.661 61.3866 264.341 61.44 264.021 61.6C263.754 61.8133 263.621 62.08 263.621 62.4C263.514 64.32 263.274 66.1333 262.901 67.84C262.527 69.6 261.861 71.4133 260.901 73.28ZM302.954 65.36C301.14 64.24 299.567 62.88 298.234 61.28C296.9 59.7333 295.78 58.0533 294.874 56.24C293.967 54.3733 293.274 52.4266 292.794 50.4C292.367 48.3733 292.127 46.32 292.074 44.24C292.02 41.7866 292.26 39.36 292.794 36.96C293.327 34.5066 294.1 32.24 295.114 30.16C296.18 28.0266 297.487 26.1333 299.034 24.4799C300.58 22.8266 302.394 21.52 304.474 20.5599C306.5 19.6533 308.58 18.9866 310.714 18.5599C312.9 18.0799 315.06 17.8399 317.194 17.8399C320.02 17.8399 322.714 18.2133 325.274 18.96C327.834 19.6533 330.047 20.7466 331.914 22.2399C333.78 23.7333 335.22 25.6266 336.234 27.92C337.3 30.2133 337.754 32.9333 337.594 36.08C337.38 39.8666 336.287 42.7466 334.314 44.7199C332.34 46.6933 329.327 48.16 325.274 49.12C324.207 49.3866 323.034 49.5466 321.754 49.6C320.527 49.6533 319.3 49.5733 318.074 49.36C316.9 49.1466 315.78 48.7733 314.714 48.24C313.7 47.7066 312.9 46.96 312.314 46C312.1 45.68 311.674 45.5733 311.034 45.68C310.447 45.7333 310.207 46.1333 310.314 46.88C310.367 47.4666 310.66 48.08 311.194 48.72C311.727 49.36 312.42 49.9733 313.274 50.56C314.18 51.0933 315.22 51.5466 316.394 51.92C317.567 52.24 318.874 52.4 320.314 52.4C320.847 52.4 321.434 52.3466 322.074 52.24C322.767 52.08 323.354 51.9466 323.834 51.84C325.647 51.3066 327.194 50.9333 328.474 50.72C329.807 50.5066 330.954 50.5333 331.914 50.8C332.927 51.0666 333.78 51.6533 334.474 52.56C335.167 53.4133 335.807 54.6666 336.394 56.32C337.3 58.88 337.034 61.0933 335.594 62.96C334.207 64.8266 331.514 66.3733 327.514 67.6C325.594 68.1866 323.887 68.56 322.394 68.72C320.954 68.88 319.247 68.96 317.274 68.96C314.714 68.96 312.207 68.6933 309.754 68.16C307.3 67.6266 305.034 66.6933 302.954 65.36ZM313.594 35.36C315.62 34.7733 317.514 34.5066 319.274 34.56C321.087 34.56 322.954 34.7733 324.874 35.1999C325.194 35.2533 325.46 35.1466 325.674 34.8799C325.94 34.6133 326.1 34.3199 326.154 34C326.207 33.6266 326.154 33.28 325.994 32.9599C325.834 32.6399 325.514 32.4266 325.034 32.3199C323.167 31.8933 321.194 31.6266 319.114 31.5199C317.087 31.3599 315.167 31.6533 313.354 32.4C312.927 32.5599 312.634 32.8266 312.474 33.1999C312.367 33.5199 312.34 33.8666 312.394 34.24C312.447 34.6133 312.58 34.9333 312.794 35.1999C313.007 35.4133 313.274 35.4666 313.594 35.36Z" fill="#3C4FD0"/>
</svg>
