<svg width="443" height="85" viewBox="0 0 443 85" fill="none" xmlns="http://www.w3.org/2000/svg">
<path d="M45.0002 34.2C42.3602 36.6 39.2402 38.28 35.6402 39.24C32.1002 40.14 28.4102 40.53 24.5702 40.41C18.9302 40.29 14.9402 39.21 12.6002 37.17C10.2602 35.13 9.33018 32.49 9.81018 29.25C10.0502 27.39 10.6502 25.83 11.6102 24.57C12.6302 23.31 13.9802 22.23 15.6602 21.33C17.4002 20.37 19.5002 19.5 21.9602 18.72C24.4802 17.88 27.3902 17.01 30.6902 16.11C31.0502 15.99 31.2902 15.78 31.4102 15.48C31.5902 15.18 31.6202 14.91 31.5002 14.67C31.4402 14.37 31.2602 14.13 30.9602 13.95C30.7202 13.77 30.4202 13.74 30.0602 13.86C27.5402 14.7 24.9602 15.48 22.3202 16.2C19.6802 16.92 16.6202 17.43 13.1402 17.73C11.5202 17.85 9.90018 17.88 8.28018 17.82C6.72018 17.7 5.31018 17.43 4.05018 17.01C2.85018 16.59 1.86018 15.96 1.08018 15.12C0.360176 14.22 0.000175953 13.05 0.000175953 11.61C0.000175953 9.51001 0.690176 7.83001 2.07018 6.57C3.45018 5.25001 5.82018 4.32001 9.18018 3.78001C12.0002 3.30001 15.3002 2.97001 19.0802 2.79001C22.9202 2.61001 26.8202 2.58001 30.7802 2.70001C34.9202 2.88001 38.2502 3.45001 40.7702 4.41001C43.3502 5.31 45.3302 6.51001 46.7102 8.01001H54.3602C54.9602 5.85001 56.1902 4.29001 58.0502 3.33001C59.9702 2.31001 62.3702 1.80001 65.2502 1.80001C68.4302 1.80001 71.0402 2.52001 73.0802 3.96001C75.1202 5.34001 76.3502 7.56001 76.7702 10.62C77.1902 13.14 77.4902 15.24 77.6702 16.92C77.8502 18.6 77.9402 20.19 77.9402 21.69C77.9402 23.19 77.8502 24.78 77.6702 26.46C77.4902 28.14 77.1902 30.24 76.7702 32.76C76.3502 35.76 75.1202 37.98 73.0802 39.42C71.0402 40.8 68.4302 41.49 65.2502 41.49C62.0702 41.49 59.4902 40.89 57.5102 39.69C55.5302 38.49 54.3902 36.66 54.0902 34.2H45.0002ZM55.1702 23.04C55.2302 22.38 55.2302 21.75 55.1702 21.15C55.1702 20.49 55.1402 19.83 55.0802 19.17H50.7602C50.8202 19.83 50.8202 20.49 50.7602 21.15C50.7602 21.75 50.7002 22.38 50.5802 23.04H55.1702ZM5.22018 76.14C4.74018 75.18 4.38018 74.07 4.14018 72.81C3.96018 71.55 3.87018 70.26 3.87018 68.94C3.87018 67.56 3.99018 66.21 4.23018 64.89C4.53018 63.57 4.95018 62.37 5.49018 61.29C6.21018 59.73 7.50018 58.56 9.36018 57.78C11.2802 57 13.6802 56.61 16.5602 56.61C18.7802 56.61 21.2102 56.61 23.8502 56.61C26.5502 56.55 29.2502 56.52 31.9502 56.52C34.7102 56.46 37.3802 56.37 39.9602 56.25C42.5402 56.13 44.8202 55.98 46.8002 55.8C47.2802 55.74 47.6102 55.59 47.7902 55.35C48.0302 55.11 48.1202 54.84 48.0602 54.54C48.0602 54.24 47.9102 54 47.6102 53.82C47.3702 53.58 47.0402 53.46 46.6202 53.46C42.5402 53.7 38.5202 53.85 34.5602 53.91C30.6002 53.97 26.6402 54.06 22.6802 54.18C19.2002 54.3 16.2602 54.36 13.8602 54.36C11.4602 54.36 9.51018 54.21 8.01018 53.91C6.57018 53.55 5.52018 53.01 4.86018 52.29C4.26018 51.57 3.96018 50.49 3.96018 49.05C3.96018 47.61 4.32018 46.53 5.04018 45.81C5.82018 45.03 6.99018 44.46 8.55018 44.1C10.1702 43.74 12.2402 43.5 14.7602 43.38C17.2802 43.2 20.3102 43.02 23.8502 42.84C26.2502 42.72 28.9202 42.63 31.8602 42.57C34.8002 42.45 37.8302 42.39 40.9502 42.39C44.1302 42.39 47.3102 42.42 50.4902 42.48C53.7302 42.54 56.7902 42.66 59.6702 42.84C61.7102 42.96 63.6302 43.14 65.4302 43.38C67.2302 43.62 68.7902 43.95 70.1102 44.37C71.4902 44.73 72.6302 45.24 73.5302 45.9C74.4902 46.56 75.1502 47.37 75.5102 48.33C76.1702 50.07 76.4702 51.81 76.4102 53.55C76.3502 55.29 76.0502 56.85 75.5102 58.23C74.9702 59.61 73.9202 60.72 72.3602 61.56C70.8602 62.34 68.9402 62.7 66.6002 62.64C58.8002 62.52 51.5102 62.61 44.7302 62.91C38.0102 63.15 31.8302 63.69 26.1902 64.53C25.6502 64.65 25.2602 64.86 25.0202 65.16C24.8402 65.4 24.7802 65.67 24.8402 65.97C24.9002 66.21 25.0802 66.45 25.3802 66.69C25.7402 66.87 26.1902 66.9 26.7302 66.78C30.6902 66.18 34.9502 65.73 39.5102 65.43C44.0702 65.07 48.7802 64.89 53.6402 64.89C57.3602 64.89 60.6902 64.95 63.6302 65.07C66.5702 65.19 69.0602 65.52 71.1002 66.06C73.2002 66.54 74.7902 67.32 75.8702 68.4C77.0102 69.42 77.5802 70.86 77.5802 72.72C77.6402 74.76 77.1602 76.38 76.1402 77.58C75.1802 78.84 73.8302 79.8 72.0902 80.46C70.3502 81.18 68.2502 81.69 65.7902 81.99C63.3902 82.35 60.7802 82.68 57.9602 82.98C52.5002 83.52 47.2502 83.82 42.2102 83.88C37.2302 83.94 31.9202 83.82 26.2802 83.52C19.9202 83.16 15.0602 82.35 11.7002 81.09C8.40018 79.89 6.24018 78.24 5.22018 76.14ZM160.668 57.87C160.548 60.57 160.398 63.24 160.218 65.88C160.098 68.52 159.888 71.13 159.588 73.71C159.168 77.31 157.908 80.01 155.808 81.81C153.768 83.61 151.128 84.51 147.888 84.51C144.228 84.51 141.318 83.49 139.158 81.45C137.058 79.41 136.278 76.35 136.818 72.27C137.838 62.55 138.348 52.89 138.348 43.29C138.348 33.69 137.838 24.24 136.818 14.94C136.278 10.5 137.058 7.20001 139.158 5.04001C141.318 2.88001 144.228 1.80001 147.888 1.80001C151.128 1.80001 153.768 2.70001 155.808 4.5C157.908 6.30001 159.168 9.06001 159.588 12.78C159.768 14.88 159.948 17.01 160.128 19.17C160.308 21.27 160.458 23.4 160.578 25.56L162.198 25.38C164.298 25.02 165.918 26.13 167.058 28.71C168.198 31.29 168.768 35.58 168.768 41.58C168.768 47.64 168.198 51.96 167.058 54.54C165.918 57.12 164.298 58.29 162.198 58.05L160.668 57.87ZM114.048 36.63C115.068 36.33 116.238 35.73 117.558 34.83C118.878 33.93 119.988 33.09 120.888 32.31C121.428 31.83 121.548 31.35 121.248 30.87C120.948 30.39 120.528 30.36 119.988 30.78C119.208 31.32 118.248 31.92 117.108 32.58C116.028 33.18 114.618 33.72 112.878 34.2C111.198 34.62 109.128 34.92 106.668 35.1C104.208 35.28 101.238 35.16 97.7578 34.74C96.3778 34.56 94.9078 34.23 93.3478 33.75C91.7878 33.27 90.3178 32.58 88.9378 31.68C87.6178 30.78 86.4778 29.58 85.5178 28.08C84.6178 26.58 84.0778 24.69 83.8978 22.41C83.5978 18.39 84.1978 15.12 85.6978 12.6C87.1978 10.02 89.3878 8.01001 92.2678 6.57C95.1478 5.13001 98.5978 4.14001 102.618 3.60001C106.638 3.06001 111.048 2.79001 115.848 2.79001C121.668 2.79001 126.078 4.38001 129.078 7.56001C132.078 10.68 133.938 14.97 134.658 20.43C135.078 23.49 135.378 26.34 135.558 28.98C135.798 31.56 135.918 34.05 135.918 36.45C135.918 38.85 135.768 41.22 135.468 43.56C135.228 45.9 134.868 48.33 134.388 50.85C133.728 54.27 132.498 56.85 130.698 58.59C128.898 60.33 126.558 61.2 123.678 61.2C120.678 61.2 118.308 60.57 116.568 59.31C114.828 58.05 113.628 55.8 112.968 52.56C112.368 49.5 112.158 46.59 112.338 43.83C112.518 41.01 113.088 38.61 114.048 36.63ZM91.6378 62.46C91.0378 59.94 90.6178 57.63 90.3778 55.53C90.1378 53.37 90.0178 51.27 90.0178 49.23C90.0178 45.39 90.8278 42.66 92.4478 41.04C94.0678 39.36 96.7378 38.52 100.458 38.52C104.418 38.52 107.118 39.51 108.558 41.49C110.058 43.41 110.808 46.32 110.808 50.22C110.808 54.42 110.328 58.74 109.368 63.18C112.968 63.18 116.448 63.12 119.808 63C123.168 62.82 125.928 62.58 128.088 62.28C130.368 61.92 132.138 62.58 133.398 64.26C134.718 65.88 135.378 68.01 135.378 70.65C135.378 73.65 134.718 76.05 133.398 77.85C132.138 79.71 130.368 80.79 128.088 81.09C125.928 81.39 123.198 81.6 119.898 81.72C116.598 81.9 113.178 81.99 109.638 81.99C106.158 81.99 102.798 81.93 99.5578 81.81C96.3178 81.69 93.6778 81.48 91.6378 81.18C89.3578 80.88 87.5578 79.8 86.2378 77.94C84.9178 76.08 84.2578 73.65 84.2578 70.65C84.2578 68.01 84.9178 65.91 86.2378 64.35C87.5578 62.73 89.3578 62.1 91.6378 62.46ZM175.085 27C174.425 24.54 174.095 21.87 174.095 18.99C174.095 16.11 174.335 13.59 174.815 11.43C175.295 9.51001 176.135 8.13001 177.335 7.29001C178.535 6.39001 180.305 5.76001 182.645 5.40001C187.025 4.80001 191.675 4.35 196.595 4.05C201.575 3.75001 206.585 3.60001 211.625 3.60001C216.665 3.60001 221.645 3.75001 226.565 4.05C231.545 4.35 236.225 4.80001 240.605 5.40001C243.005 5.76001 244.775 6.39001 245.915 7.29001C247.115 8.13001 247.925 9.51001 248.345 11.43C248.585 12.51 248.765 13.71 248.885 15.03C249.005 16.29 249.065 17.61 249.065 18.99C249.065 20.37 248.975 21.75 248.795 23.13C248.675 24.51 248.435 25.8 248.075 27C247.595 28.92 246.815 30.33 245.735 31.23C244.715 32.07 243.005 32.61 240.605 32.85C236.165 33.33 231.485 33.72 226.565 34.02C221.645 34.26 216.665 34.38 211.625 34.38C206.585 34.38 201.605 34.26 196.685 34.02C191.765 33.72 187.085 33.33 182.645 32.85C180.305 32.61 178.595 32.07 177.515 31.23C176.435 30.33 175.625 28.92 175.085 27ZM204.065 17.46C203.525 18.3 203.915 19.05 205.235 19.71C207.275 20.85 209.405 21.42 211.625 21.42C213.905 21.36 216.065 20.79 218.105 19.71C219.005 19.23 219.335 18.57 219.095 17.73C218.975 17.37 218.705 17.07 218.285 16.83C217.925 16.59 217.505 16.59 217.025 16.83C215.465 17.73 213.635 18.18 211.535 18.18C209.495 18.12 207.665 17.64 206.045 16.74C205.745 16.56 205.385 16.53 204.965 16.65C204.545 16.77 204.245 17.04 204.065 17.46ZM200.105 62.1C197.465 62.94 194.735 63.63 191.915 64.17C189.095 64.71 186.275 65.04 183.455 65.16C180.155 65.34 177.815 64.77 176.435 63.45C175.055 62.07 174.365 60.33 174.365 58.23C174.365 56.31 174.965 54.75 176.165 53.55C177.425 52.29 179.285 51.72 181.745 51.84C184.085 52.02 186.485 52.17 188.945 52.29C191.405 52.35 193.895 52.44 196.415 52.56C196.355 52.14 196.325 51.75 196.325 51.39C196.325 50.97 196.325 50.52 196.325 50.04V48.78C193.385 48.66 190.505 48.54 187.685 48.42C184.925 48.3 182.225 48.12 179.585 47.88C177.005 47.7 174.965 47.13 173.465 46.17C172.025 45.15 171.305 43.62 171.305 41.58C171.305 39.84 172.025 38.4 173.465 37.26C174.965 36.06 177.005 35.55 179.585 35.73C184.385 36.03 189.485 36.27 194.885 36.45C200.285 36.57 205.745 36.63 211.265 36.63C216.845 36.63 222.365 36.57 227.825 36.45C233.345 36.27 238.595 36.03 243.575 35.73C246.215 35.55 248.255 36.06 249.695 37.26C251.195 38.4 251.945 39.84 251.945 41.58C251.945 43.62 251.195 45.15 249.695 46.17C248.255 47.19 246.185 47.76 243.485 47.88C240.785 48.12 238.055 48.3 235.295 48.42C232.535 48.54 229.715 48.66 226.835 48.78V50.04C226.835 50.52 226.835 50.97 226.835 51.39C226.835 51.81 226.805 52.23 226.745 52.65C231.905 52.47 236.825 52.2 241.505 51.84C244.025 51.72 245.855 52.17 246.995 53.19C248.195 54.21 248.795 55.59 248.795 57.33C248.795 58.83 248.285 60.12 247.265 61.2C246.245 62.28 244.925 62.85 243.305 62.91C238.265 63.03 233.465 63.75 228.905 65.07C224.405 66.33 220.565 68.07 217.385 70.29C217.085 70.47 216.905 70.71 216.845 71.01C216.785 71.31 216.785 71.58 216.845 71.82C216.965 72 217.145 72.15 217.385 72.27C217.685 72.33 218.015 72.24 218.375 72C221.195 70.38 224.255 68.94 227.555 67.68C230.855 66.36 234.335 65.64 237.995 65.52C241.595 65.46 244.415 66.24 246.455 67.86C248.495 69.42 249.515 71.55 249.515 74.25C249.515 77.13 248.465 79.2 246.365 80.46C244.265 81.78 241.175 82.59 237.095 82.89C232.715 83.19 228.215 83.4 223.595 83.52C219.035 83.64 214.445 83.7 209.825 83.7C205.265 83.7 200.765 83.61 196.325 83.43C191.885 83.31 187.595 83.1 183.455 82.8C180.335 82.62 177.905 82.02 176.165 81C174.425 80.04 173.555 78.39 173.555 76.05C173.555 73.35 174.545 71.28 176.525 69.84C178.565 68.34 181.175 67.47 184.355 67.23C187.175 66.93 189.875 66.6 192.455 66.24C195.095 65.82 197.855 65.13 200.735 64.17C201.035 64.05 201.215 63.87 201.275 63.63C201.395 63.33 201.425 63.06 201.365 62.82C201.305 62.52 201.155 62.31 200.915 62.19C200.675 62.01 200.405 61.98 200.105 62.1ZM291.875 39.15C289.115 38.73 286.775 38.16 284.855 37.44C282.995 36.72 281.495 35.88 280.355 34.92C279.215 33.9 278.375 32.79 277.835 31.59C277.355 30.39 277.115 29.1 277.115 27.72C277.115 26.16 277.415 24.69 278.015 23.31C278.615 21.93 279.695 20.73 281.255 19.71C280.115 19.05 279.275 18.21 278.735 17.19C278.195 16.11 277.925 14.94 277.925 13.68C277.925 11.94 278.405 10.41 279.365 9.09C280.385 7.71 281.705 6.87 283.325 6.57C284.825 6.39001 286.445 6.57001 288.185 7.11001C289.925 7.65001 291.485 8.34001 292.865 9.18001C290.945 7.86001 290.165 6.45001 290.525 4.95C290.825 3.57 291.875 2.4 293.675 1.44001C295.535 0.480008 298.355 8.82149e-06 302.135 8.82149e-06C305.795 8.82149e-06 308.525 0.480008 310.325 1.44001C312.125 2.4 313.205 3.57 313.565 4.95C313.805 6.45001 313.025 7.86001 311.225 9.18001C312.605 8.34001 314.165 7.65001 315.905 7.11001C317.645 6.57001 319.295 6.39001 320.855 6.57C322.415 6.87 323.705 7.71 324.725 9.09C325.745 10.47 326.255 12.03 326.255 13.77C326.255 16.41 325.085 18.39 322.745 19.71C324.245 20.73 325.295 21.93 325.895 23.31C326.495 24.69 326.795 26.16 326.795 27.72C326.795 29.1 326.555 30.42 326.075 31.68C325.595 32.88 324.755 33.99 323.555 35.01C322.415 35.97 320.885 36.81 318.965 37.53C317.105 38.25 314.795 38.79 312.035 39.15V41.49C313.235 41.43 314.375 41.37 315.455 41.31C316.535 41.25 317.525 41.16 318.425 41.04C320.825 40.8 322.745 41.25 324.185 42.39C325.625 43.47 326.345 44.97 326.345 46.89C326.345 48.99 325.685 50.67 324.365 51.93C323.105 53.19 321.305 53.91 318.965 54.09C316.865 54.27 314.225 54.42 311.045 54.54C307.925 54.66 304.715 54.72 301.415 54.72C298.115 54.72 294.905 54.69 291.785 54.63C288.725 54.51 286.205 54.36 284.225 54.18C281.885 54 280.055 53.28 278.735 52.02C277.475 50.7 276.845 48.99 276.845 46.89C276.845 44.97 277.475 43.47 278.735 42.39C280.055 41.25 281.885 40.83 284.225 41.13C285.245 41.25 286.385 41.34 287.645 41.4C288.965 41.46 290.375 41.52 291.875 41.58V39.15ZM351.095 42.84C350.975 43.44 350.885 44.01 350.825 44.55C350.825 45.09 350.765 45.63 350.645 46.17C350.165 49.53 348.905 51.99 346.865 53.55C344.885 55.05 342.305 55.8 339.125 55.8C335.465 55.8 332.555 54.9 330.395 53.1C328.295 51.3 327.515 48.6 328.055 45C328.415 42.66 328.655 40.11 328.775 37.35C328.955 34.59 329.045 31.8 329.045 28.98C329.045 26.1 328.955 23.34 328.775 20.7C328.655 18 328.445 15.6 328.145 13.5C327.845 11.46 327.905 9.69001 328.325 8.19001C328.745 6.69001 329.435 5.46001 330.395 4.5C331.415 3.54001 332.675 2.85001 334.175 2.43C335.675 1.95001 337.325 1.71001 339.125 1.71001C342.305 1.71001 344.885 2.52001 346.865 4.14001C348.905 5.70001 350.165 8.16001 350.645 11.52C350.765 12.24 350.855 13.02 350.915 13.86C351.035 14.64 351.155 15.45 351.275 16.29L353.975 16.02C356.075 15.78 357.695 16.74 358.835 18.9C359.975 21 360.545 24.54 360.545 29.52C360.545 34.5 359.975 38.07 358.835 40.23C357.695 42.39 356.075 43.35 353.975 43.11L351.095 42.84ZM295.565 24.66C296.945 26.04 298.415 27.24 299.975 28.26C301.595 29.22 303.365 30.03 305.285 30.69C305.645 30.81 305.975 30.78 306.275 30.6C306.635 30.42 306.875 30.18 306.995 29.88C307.175 29.58 307.205 29.28 307.085 28.98C307.025 28.68 306.785 28.44 306.365 28.26C304.625 27.72 302.975 27 301.415 26.1C299.855 25.14 298.415 23.94 297.095 22.5C296.795 22.2 296.495 22.11 296.195 22.23C295.895 22.29 295.625 22.47 295.385 22.77C295.205 23.01 295.115 23.31 295.115 23.67C295.115 24.03 295.265 24.36 295.565 24.66ZM278.465 69.21C278.345 67.77 278.675 66.48 279.455 65.34C280.235 64.14 281.345 63.09 282.785 62.19C284.285 61.29 286.055 60.51 288.095 59.85C290.135 59.19 292.355 58.65 294.755 58.23C297.995 57.69 301.325 57.24 304.745 56.88C308.225 56.52 311.705 56.28 315.185 56.16C318.665 56.04 322.085 56.04 325.445 56.16C328.865 56.28 332.105 56.55 335.165 56.97C339.485 57.63 342.845 58.62 345.245 59.94C347.705 61.2 349.445 62.64 350.465 64.26C351.125 65.34 351.575 66.54 351.815 67.86C352.055 69.12 352.085 70.38 351.905 71.64C351.785 72.9 351.455 74.1 350.915 75.24C350.435 76.38 349.805 77.37 349.025 78.21C347.225 80.25 344.885 81.63 342.005 82.35C339.185 83.13 335.435 83.58 330.755 83.7C325.895 83.82 321.935 83.31 318.875 82.17C315.875 81.09 314.225 79.5 313.925 77.4C313.565 73.62 315.125 70.47 318.605 67.95C318.845 67.83 318.935 67.68 318.875 67.5C318.875 67.26 318.815 67.05 318.695 66.87C318.575 66.69 318.395 66.57 318.155 66.51C317.975 66.45 317.795 66.51 317.615 66.69C316.055 68.25 314.315 69.6 312.395 70.74C310.475 71.82 308.465 72.72 306.365 73.44C304.265 74.16 302.105 74.67 299.885 74.97C297.665 75.33 295.505 75.54 293.405 75.6C291.245 75.6 289.265 75.54 287.465 75.42C285.725 75.3 284.195 75 282.875 74.52C281.555 74.1 280.505 73.47 279.725 72.63C279.005 71.73 278.585 70.59 278.465 69.21ZM416.903 47.97C417.263 45.51 417.533 42.72 417.713 39.6C417.893 36.42 417.983 33.21 417.983 29.97C417.983 26.73 417.893 23.58 417.713 20.52C417.593 17.46 417.353 14.76 416.993 12.42C416.753 10.56 416.843 8.97001 417.263 7.65001C417.743 6.33001 418.463 5.25001 419.423 4.41001C420.443 3.51001 421.673 2.85001 423.113 2.43C424.613 2.01001 426.263 1.80001 428.063 1.80001C431.243 1.80001 433.853 2.52001 435.893 3.96001C437.933 5.34001 439.163 7.56001 439.583 10.62C440.003 13.14 440.303 16.11 440.483 19.53C440.663 22.89 440.753 26.37 440.753 29.97C440.753 33.51 440.663 36.96 440.483 40.32C440.303 43.68 440.003 46.62 439.583 49.14C439.163 52.14 437.933 54.36 435.893 55.8C433.853 57.24 431.243 57.96 428.063 57.96C424.403 57.96 421.523 57.15 419.423 55.53C417.323 53.91 416.483 51.39 416.903 47.97ZM364.163 27.54C364.163 24.06 364.553 20.79 365.333 17.73C366.113 14.61 367.463 11.91 369.383 9.63001C371.303 7.29001 373.883 5.46001 377.123 4.14001C380.363 2.76001 384.443 2.07001 389.363 2.07001C394.283 2.07001 398.363 2.76001 401.603 4.14001C404.843 5.46001 407.423 7.29001 409.343 9.63001C411.263 11.91 412.613 14.61 413.393 17.73C414.233 20.79 414.653 24.06 414.653 27.54C414.653 30.96 414.203 34.2 413.303 37.26C412.403 40.26 410.963 42.9 408.983 45.18C407.003 47.4 404.393 49.17 401.153 50.49C397.973 51.81 394.043 52.47 389.363 52.47C384.683 52.47 380.723 51.81 377.483 50.49C374.303 49.17 371.723 47.4 369.743 45.18C367.763 42.9 366.323 40.26 365.423 37.26C364.583 34.2 364.163 30.96 364.163 27.54ZM382.613 25.02C383.933 26.76 385.643 28.26 387.743 29.52C389.843 30.78 392.033 31.68 394.313 32.22C394.853 32.34 395.303 32.28 395.663 32.04C396.023 31.8 396.263 31.5 396.383 31.14C396.563 30.72 396.593 30.33 396.473 29.97C396.413 29.61 396.203 29.37 395.843 29.25C393.683 28.59 391.673 27.69 389.813 26.55C387.953 25.41 386.183 24 384.503 22.32C384.203 22.08 383.873 22.02 383.513 22.14C383.213 22.2 382.913 22.38 382.613 22.68C382.373 22.98 382.223 23.34 382.163 23.76C382.103 24.18 382.253 24.6 382.613 25.02ZM366.773 68.76C366.773 64.26 367.793 60.78 369.833 58.32C371.873 55.8 374.573 54.3 377.933 53.82C379.733 53.52 381.503 53.46 383.243 53.64C385.043 53.76 386.723 54.12 388.283 54.72C389.843 55.32 391.193 56.16 392.333 57.24C393.533 58.26 394.433 59.49 395.033 60.93C395.393 61.83 395.633 62.91 395.753 64.17C395.933 65.37 395.963 66.57 395.843 67.77C395.723 68.97 395.423 70.11 394.943 71.19C394.463 72.27 393.803 73.11 392.963 73.71C392.663 73.89 392.483 74.13 392.423 74.43C392.363 74.73 392.393 75 392.513 75.24C392.633 75.48 392.813 75.63 393.053 75.69C393.353 75.75 393.653 75.63 393.953 75.33C396.353 73.59 398.843 71.82 401.423 70.02C404.003 68.22 406.703 66.6 409.523 65.16C412.403 63.72 415.373 62.55 418.433 61.65C421.553 60.69 424.793 60.21 428.153 60.21C429.833 60.21 431.423 60.39 432.923 60.75C434.423 61.05 435.773 61.59 436.973 62.37C438.173 63.09 439.163 64.05 439.943 65.25C440.723 66.39 441.233 67.8 441.473 69.48C441.833 73.14 440.963 76.08 438.863 78.3C436.823 80.58 433.163 82.05 427.883 82.71C425.063 83.07 421.913 83.34 418.433 83.52C415.013 83.76 411.383 83.88 407.543 83.88C403.703 83.94 399.683 83.91 395.483 83.79C391.343 83.73 387.143 83.58 382.883 83.34C380.243 83.16 377.903 82.65 375.863 81.81C373.883 80.97 372.203 79.89 370.823 78.57C369.503 77.25 368.483 75.75 367.763 74.07C367.103 72.39 366.773 70.62 366.773 68.76Z" fill="#FFFEF7"/>
</svg>
